<?xml version="1.0" encoding="UTF-8"?>
<svg version="1.1" viewBox="0 0 2048 2048" width="512" height="512" xmlns="http://www.w3.org/2000/svg">
<path transform="translate(187,303)" d="m0 0h1673l31 2 15 2 20 6 16 6 22 12 11 8 11 9 10 9 11 12 10 13 6 10 11 21 10 30 2 9h2v1141h-2l-3 14-8 25-8 17-10 17-9 11-11 13-7 7-11 9-16 11-25 13-24 8-20 4-21 2h-1698l-31-3-30-9-16-8-15-8-12-9-11-9-10-9-12-14-10-14-12-22-5-12-7-23-2-8v-5h-2v-1131l2-7 4-17 8-24 12-22 7-11 11-13 7-8 9-9 14-11 10-7 22-12 15-6 22-6 24-3zm22 121-1 3 8 7 158 158h2l2 4h2l2 4h2l1 3 8 7 189 189h2l2 4h2l2 4h2l2 4h2l1 3 6 5 5 6 7 6 123 123h2l2 4h2l2 4h2l2 4h2l1 3 8 7 135 135 11 9 13 11 13 8 23 12 27 8 19 3 9 1h26l24-3 30-9 24-12 11-7 13-11 10-8 7-6 4-4v-2h2v-2h2v-2h2v-2l4-2 173-173 7-6v-2l4-2v-2l4-2 168-168 2-1v-2h2v-2h2v-2h2v-2h2v-2h2v-2h2v-2l4-2v-2l4-2v-2l4-2v-2l4-2v-2l4-2 138-138 6-5 5-5v-2l4-2v-2l4-2v-2l4-2 120-120v-1zm-88 87-1 64v952l1 10 7-6 67-67 7-6v-2l4-2 148-148 2-1v-2h2v-2h2v-2h2v-2h2v-2h2v-2h2v-2l4-2v-2l4-2v-2l4-2 118-118 6-5 5-5v-2l4-2v-2l4-2v-2l4-2 116-116-2-4-125-125h-2l-2-4h-2l-2-4h-2l-2-4h-2v-2h-2v-2h-2v-2h-2v-2l-7-6-5-6-8-7-161-161-6-5-6-7-8-7-149-149-8-7-10-10zm1805 0-16 16-2 1v2h-2v2h-2v2h-2v2h-2v2l-4 2v2l-4 2-167 167-7 6-5 5v2l-4 2v2l-4 2v2l-4 2-193 193-4 3v2l-4 2v2l-4 2v2l-4 2v2l-4 2v2l-4 2v2l-4 2v2l-4 2v2l-4 2v2l-4 2v2l-4 2-52 52-1 3 159 159h2l2 4h2l2 4h2l1 3 8 7 157 157h2l2 4h2l1 3 6 5 5 6 7 6 99 99h2l2 4h2l2 4h2l2 4 8 7 36 36h1v-1026zm-602 599-8 7-6 7-2 1v2l-4 2-74 74-8 7-16 13-17 12-15 9-12 7-24 11-33 11-26 6-30 4-15 1h-20l-26-2-26-4-27-7-25-9-28-13-20-12-17-12-10-8-10-9-11-9-71-71h-2l-2-4h-2l-2-4-7-6-2-3-5 1-31 31-2 1v2h-2v2h-2v2h-2v2h-2v2h-2v2h-2v2h-2v2h-2v2h-2v2h-2v2l-4 2-119 119-8 7v2l-4 2v2l-4 2-146 146-7 6v2l-4 2v2l-4 2v2l-4 2v2l-4 2v2l-4 2v2l-4 2v2l-4 2-121 121-8 7-12 12v1l1460 1 173-1-1-3-8-7-185-185h-2l-2-4h-2l-2-4h-2v-2h-2v-2l-7-6-5-6-8-7-121-121h-2l-2-4-6-5-115-115h-2l-2-4-7-6-32-32z" fill="#ffffff"/>
<path transform="translate(1,1596)" d="m0 0"/>
</svg>
