<?xml version="1.0" encoding="UTF-8"?>
<svg version="1.1" viewBox="0 0 2048 2048" width="512" height="512" xmlns="http://www.w3.org/2000/svg">
<path transform="translate(793,144)" d="m0 0h1l3 31 6 36 6 28 11 41 11 35 12 36 18 49 21 52 21 49 15 33 12 26 14 29 11 23 10 21 10 19 12 24 10 19 30 56 13 23 14 25 14 24 10 18 17 28 9 15 16 26 13 21 14 22 16 25 17 26 18 27 15 22 13 19 24 34 13 18 8 11 36 48 13 16 10 13 9 11 13 16 13 15 9 11 10 11 7 8 12 13 15 16 27 27 8 7 12 11 11 9 16 13 20 14 8 6v3l-37 2h-19l-34-2-36-4-55-9-57-11-43-9-65-13-85-16-32-5-32-4-44-4-44-2h-47l-36 2-39 4-41 7-31 7-18 5-4-1-14-24-14-25-10-17-15-26-14-24-16-28-14-24-16-28-10-17-16-28-15-26-14-24-15-26-16-28-14-24-30-52-16-28-15-26-8-14 2-4 23-23 7-8 10-11 9-11 13-16 20-28 16-24 13-21 14-24 7-14 10-19 16-33 16-37 13-33 11-30 12-35 10-29 21-62 15-46 15-43 14-38 11-27 12-27 13-26 12-21 8-12 9-13z"/>
<path transform="translate(891,71)" d="m0 0 18 2 16 6 15 8 14 9 19 14 28 24 9 9 8 7 14 14 7 8 13 13 7 8 12 13 12 14 11 13 12 14 8 10 11 14 13 16 12 16 13 17 12 16 14 19 14 20 13 18 9 13 17 25 22 33 17 26 11 17 12 19 16 26 15 24 26 44 10 17 14 24 12 22 12 21 16 29 17 32 10 18 19 38 10 19 19 39 11 23 17 37 16 36 15 35 14 35 11 28 18 50 15 47 12 44 7 33 4 26 2 23v18l-3 22-5 13-6 9-7 6-11 4h-15l-15-4-15-7-14-8-20-14-17-14-14-12-15-14-37-37v-2h-2l-7-8-9-10v-2h-2l-7-8-12-14-9-11-12-14-11-14-13-16-11-14-16-21-15-20-14-19-12-17-13-18-15-22-12-17-25-38 1-5 13-9 13-12 10-10 11-14 9-13 10-18 7-15 8-24 5-22 2-20v-28l-2-19-4-20-6-20-9-21-9-17-10-15-11-14-7-7v-2h-2l-12-12-20-15-19-11-21-10-18-6-26-6-18-2h-36l-21 3-24 6-21 8-5 1-5-8-9-19-8-16-15-31-15-33-20-45-15-36-17-43-14-38-16-47-12-41-9-37-5-26-4-32v-34l3-16 4-11 6-9 7-6 10-4z"/>
<path transform="translate(389,900)" d="m0 0 4 2 6 11 14 24 30 52 14 24 16 28 14 24 14 25 8 13 28 49 15 26 10 17 15 26 16 28 14 24 8 14 14 24 16 28 14 24 4 7v3l-26 15-24 14-52 30-24 14-52 30-24 14-24 13-24 10-22 7-27 6-23 3-15 1h-17l-31-3-25-5-18-5-19-7-18-8-17-9-19-12-14-11-14-12-20-20-9-11-10-13-11-17-12-22-7-16-7-19-6-22-5-28-2-23v-20l2-23 5-28 7-25 10-26 11-22 10-16 12-17 9-11 11-12 15-15 14-11 13-10 18-11 24-14 26-15 28-16 104-60 24-14z"/>
<path transform="translate(650,1450)" d="m0 0h3l11 43 10 33 12 33 13 31 12 26 9 17 7 14 16 27 12 19 13 19 11 15 12 16 11 13 9 11 9 10 10 13 8 13 8 17 5 19 2 14v20l-2 16-6 21-6 14-8 13-8 11-7 8-8 7-12 9-17 10-17 7-13 4-18 3h-26l-17-3-21-7-17-9-13-10-10-9-9-9-4-3v-2l-4-2v-2l-3-1-7-8-13-13-7-8-12-14-11-13-24-32-22-33-11-18-12-21-15-29-11-23-15-36-9-26-7-21-10-37-6-26v-5l6-3 20-7 25-11 25-13 48-28 28-16 52-30 24-14z"/>
<path transform="translate(1849,353)" d="m0 0h9l11 4 9 7 6 10 1 4v14l-4 9-5 7-10 7-25 14-15 9-28 16-48 28-28 16-26 15-24 14-21 12-24 14-12 6-7 2h-12l-10-4-7-6-6-10-2-7 1-13 5-10 7-7 22-13 26-15 24-14 104-60 24-14 26-15 24-14 8-4z"/>
<path transform="translate(1953,755)" d="m0 0h22l10 3 9 7 6 9 2 6v13l-4 9-4 6-7 6-9 3-6 1-82 4-198 9h-15l-9-3-6-4-7-7-5-11v-13l4-10 9-10 8-4 12-2 159-7z"/>
<path transform="translate(1558,52)" d="m0 0h14l8 3 8 6 6 9 2 6v14l-8 16-12 19-9 14-12 19-14 22-11 17-12 19-7 11-11 17-35 55-12 19-15 23-7 9-5 4-9 4-3 1h-10l-11-4-9-8-6-12-1-10 4-13 11-17 28-44 15-23 11-18 11-17 9-14 28-44 16-25 28-44 7-8 9-5z"/>
</svg>
