<?xml version="1.0" encoding="UTF-8"?>
<svg version="1.1" viewBox="0 0 2048 2048" width="512" height="512" xmlns="http://www.w3.org/2000/svg">
<path transform="translate(540)" d="m0 0h1137l15 5 15 8 13 11 8 10 6 10 5 13 2 11 1 19v169l25-1h44l24 1 15 3 14 6 13 9 11 11 9 14 5 11 3 14 1 23v1588l-1 44-3 14-5 12-6 10-7 9-11 9-10 6-11 5-11 4h-1134l-19-7-11-6-13-11-9-11-8-15-4-14-1-6v-186h-88l-15-2-15-5-12-7-10-9-7-7-9-14-6-16-2-11v-1652l4-17 8-16 9-11 9-9 11-7 10-5zm25 46-15 1-8 3-9 7-6 10-2 10v1640l3 10 6 8 8 6 7 3 5 1h1110l12-3 8-6 6-7 4-11v-1645l-4-11-7-8-8-5-6-2-264-1zm1177 257-1 1370-1 49-3 15-6 14-9 13-8 8-10 7-14 7-15 4-10 1-976 1v181l3 10 4 6 9 8 11 4 16 1h911l189-1 12-5 4-3v-2l3-1 5-8 2-7v-1646l-4-11-7-8-9-5-7-2z"/>
<path transform="translate(258,425)" d="m0 0h13l9 4 6 7 8 18 9 22 16 39 17 41 16 39 17 41 10 24 8 19 1 4v1176l-1 24-4 16-4 9-6 11-8 10-7 7-15 10-15 6-12 3-10 1h-84l-15-2-16-6-11-6-11-9-10-11-8-13-5-12-3-12-1-9v-1191l7-20 16-39 20-49 10-24 43-104 7-15 8-7zm6 85-12 29-15 36-13 32-18 43-5 11v2h127l-1-5-17-41-16-39-17-41-11-27zm-74 200-1 12v1019h151v-1031zm0 1078-1 20v62l2 13 5 10 9 9 10 5 11 2h79l12-3 10-6 8-9 4-9 1-6v-88z"/>
<path transform="translate(755,545)" d="m0 0h24l21 3 14 4 16 6 17 9 14 10 10 9 5 4 7 8 13 17 12 23 7 21 4 21v35l-5 24-6 17-8 16-10 16-13 15-7 7-14 11-16 10-17 8-15 5-20 4-8 1h-26l-20-3-20-6-20-9-18-12-13-11-9-9-9-11-10-15-8-16-6-16-4-17-2-15v-22l3-22 4-14 6-16 10-19 12-16 11-12 11-10 16-11 14-8 21-8 17-4zm6 47-15 2-15 4-16 8-11 7-12 11-9 10-7 11-7 14-5 17-2 15v11l2 16 5 17 8 16 9 13 8 9 14 11 14 8 16 6 13 3 10 1h13l15-2 17-5 16-8 16-12 10-10 10-14 8-17 5-19 1-7v-22l-3-16-5-14-8-16-11-14-9-9-14-10-19-9-14-4-15-2z"/>
<path transform="translate(755,148)" d="m0 0h25l21 3 19 6 16 7 14 8 16 12 12 11 9 11 9 12 12 23 7 21 4 21v34l-5 25-7 19-8 16-8 12-8 10-9 10-11 10-10 7-15 9-15 7-20 6-15 3-9 1h-25l-20-3-17-5-15-6-19-11-12-9-13-12-10-11-9-13-8-14-6-13-5-15-4-20-1-8v-22l3-22 4-15 8-19 8-15 12-16 11-12 12-11 18-12 16-8 16-6 16-4zm6 47-15 2-15 4-17 8-11 8-10 9-8 8-9 14-7 14-5 16-2 17v10l2 16 5 17 8 16 9 13 7 8 11 9 14 9 13 6 14 4 16 2h14l18-3 15-5 17-9 14-11 8-8 9-12 8-15 5-15 3-16v-23l-4-18-6-16-8-14-9-11-9-9-14-10-16-8-17-5-14-2z"/>
<path transform="translate(759,1339)" d="m0 0h18l22 3 21 6 16 7 15 9 12 9 10 9 11 11 11 15 9 16 8 19 5 19 2 12v34l-5 25-6 17-8 16-8 13-13 16-9 9-11 9-15 10-21 10-15 5-19 4-7 1h-31l-25-5-20-7-17-9-16-11-13-12-8-8-10-13-8-13-8-16-7-21-3-16-1-9v-22l3-21 4-15 6-16 9-17 9-13 12-14 13-12 14-10 16-9 19-8 20-5zm-6 48-15 3-16 6-14 8-14 12-11 12-8 13-5 10-6 19-2 16v10l2 17 7 21 8 15 11 14 12 11 14 9 17 8 17 4 9 1h18l17-3 17-6 14-8 12-9 12-12 7-10 9-17 5-17 2-12v-22l-3-16-7-19-9-15-9-11-7-7-15-11-17-8-17-5-6-1z"/>
<path transform="translate(758,942)" d="m0 0h19l17 2 17 4 21 8 16 9 14 10 12 11 5 5 9 10 10 15 10 19 7 21 3 14 1 8v33l-5 25-6 17-8 17-7 10-9 12-11 12-10 9-16 11-19 10-17 6-16 4-13 2h-31l-25-5-22-8-15-8-13-9-11-9-13-13-10-13-8-13-8-16-6-18-4-20-1-9v-21l3-21 4-15 6-16 9-17 9-13 11-13 9-9 13-10 16-10 19-9 20-6zm-5 48-15 3-16 6-14 8-11 9-10 10-8 11-7 12-6 16-3 14-1 9v12l2 16 6 19 8 15 12 16h2l2 4 11 9 13 8 16 7 17 4 8 1h18l17-3 19-7 15-9 10-8 10-10 10-14 8-17 5-18 1-8v-22l-3-16-6-17-10-17-9-11-8-8-16-11-17-8-15-4-6-1z"/>
<path transform="translate(1015,1070)" d="m0 0h556l16 1 8 4 7 8 2 5v12l-4 8-9 8-13 2h-574l-9-2-9-8-4-8v-12l4-8 8-7 5-2z"/>
<path transform="translate(1024,1467)" d="m0 0h547l16 1 8 4 7 8 2 5v13l-6 10-5 4-5 2-12 1h-575l-8-3-8-8-3-7-1-7 3-9 5-7 10-6z"/>
<path transform="translate(1010,673)" d="m0 0h555l22 1 8 4 7 8 2 5v12l-4 8-8 7-5 2-17 1h-563l-9-1-8-5-6-7-2-5v-11l3-8 9-8 4-2z"/>
<path transform="translate(1e3 1379)" d="m0 0h574l12 2 6 4 6 7 2 5v12l-5 9-7 6-5 2-25 1h-556l-10-2-8-6-4-5-2-6v-11l4-8 8-7z"/>
<path transform="translate(1069,276)" d="m0 0h487l32 1 9 6 6 8 1 3v12l-4 8-8 7-5 2-37 1h-543l-12-2-9-8-4-8-1-7 3-10 7-8 7-4z"/>
<path transform="translate(1006,982)" d="m0 0h573l9 1 8 5 6 7 2 5v12l-5 9-7 6-6 2-61 1h-117l-409-1-8-4-6-7-3-6v-12l4-8 4-5 7-4z"/>
<path transform="translate(1e3 585)" d="m0 0h573l13 1 9 5 6 9 1 3v12l-4 8-8 7-7 2-76 1-510-1-8-4-6-7-3-6v-12l4-8 5-5 4-3z"/>
<path transform="translate(1e3 188)" d="m0 0h576l9 1 6 3 5 5 4 6 1 3v12l-5 9-7 6-6 2h-587l-8-4-6-7-3-7v-11l5-10 10-7z"/>
<path transform="translate(1e3 1556)" d="m0 0h363l8 3 6 5 5 9v13l-6 10-5 4-9 3h-363l-10-5-6-8-3-10 2-9 6-9 8-5z"/>
<path transform="translate(1e3 1159)" d="m0 0h364l8 3 6 5 5 9v13l-6 10-7 5-7 2h-362l-8-3-6-5-5-10-1-6 2-8 4-7 10-7z"/>
<path transform="translate(999,762)" d="m0 0h365l8 3 6 5 4 6 1 4v11l-4 8-4 5-8 4-5 1h-361l-8-3-5-5-4-5-2-4v-12l5-10 9-7z"/>
<path transform="translate(999,365)" d="m0 0h366l10 5 7 9 1 3v13l-6 10-5 4-5 2-7 1h-358l-8-3-8-7-4-8v-11l3-7 5-6z"/>
<path transform="translate(814,1037)" d="m0 0 11 2 8 6 5 8 1 3v10l-4 9-4 5h-2l-2 4h-2v2h-2v2h-2v2h-2v2h-2v2h-2v2h-2v2h-2l-2 4h-2l-2 4h-2l-2 4h-2l-2 4-27 27-9 7-7 3h-9l-9-4-10-9v-2l-4-2v-2l-3-1-7-8-5-4-9-11-2-5v-12l4-8 5-5 8-4 8-1 10 3 12 11 5 5 4-1 9-9 6-7 6-5 5-6 7-6 6-7 8-7 5-4z"/>
<path transform="translate(808,641)" d="m0 0h14l8 4 6 7 3 7v10l-5 10-4 5h-2v2h-2v2h-2v2h-2v2l-4 4h-2v2h-2v2h-2v2h-2v2l-7 6-5 6h-2v2h-2v2h-2v2h-2v2h-2v2h-2v2h-2v2h-2v2h-2l-2 4h-2l-2 4h-2v2h-2v2l-9 7-9 3-10-1-8-5-10-9-5-5v-2l-4-2v-2h-2l-4-4v-2l-4-2-8-11-1-3v-12l5-10 6-5 10-3 9 1 8 4 14 14 4-1 6-7h2l2-4h2l2-4h2l2-4 6-5 6-7 4-4h2l2-4h2l2-4 8-7z"/>
<path transform="translate(809,1435)" d="m0 0h12l10 5 6 8 2 5v10l-5 10-12 13-52 52h-2v2l-9 6-6 2h-8l-9-4-10-9-5-6-7-6-7-8-7-7-4-8v-12l4-8 8-7 4-2h14l10 6 13 13 7-6 31-31 5-6 8-7 6-4z"/>
<path transform="translate(808,244)" d="m0 0h14l8 4 6 7 3 7v10l-5 10-70 70-8 4h-13l-8-4-7-6v-2l-4-2v-2l-3-1-7-8-14-14-4-8v-12l5-10 8-6 8-2 9 1 8 4 14 14 4-1 10-11h2l1-3 7-6 5-6 6-5 6-7 6-5 5-5z"/>
<path transform="translate(702,2047)" d="m0 0 2 1z"/>
</svg>
