<?xml version="1.0" encoding="UTF-8"?>
<svg version="1.1" viewBox="0 0 2048 2048" width="512" height="512" xmlns="http://www.w3.org/2000/svg">
<path transform="translate(778,67)" d="m0 0h41l24 4 27 9 17 8 16 10 14 11 10 9 9 9 11 14 10 15 8 16 8 17 6 9 6 7 11 7 9 4 8 2 22 1h32l24 1 15 3 16 7 13 9 11 10 10 14 7 15 4 16 1 11v19l94-1h113l24 1 15 2 19 5 15 6 19 11 13 10 12 11 11 13 10 15 9 19 6 18 3 17 1 15 1 395 6-9 12-19 16-26 24-38 16-26 24-38 16-26 10-16 8-13 9-14 8-12 7-9 16-14 13-8 11-5 17-5 14-2h17l18 3 15 5 19 10 19 12 28 17 24 15 28 17 14 10 13 12 9 12 8 14 6 17 3 16v24l-3 16-6 17-11 19-12 19-13 21-12 19-13 21-12 19-15 24-13 21-25 40-13 21-12 19-35 56-13 21-10 16-12 19-8 13-12 19-8 13-12 19-8 13-12 19-8 13-12 19-8 13-12 19-8 13-12 19-8 13-12 19-8 13-12 19-8 13-12 19-8 13-12 19-8 13-10 16-1 335-2 23-4 17-7 19-8 15-8 12-9 10-7 8-13 11-14 9-16 8-16 6-17 4-16 2h-1193l-22-3-17-5-20-9-16-10-13-11-12-12-11-14-10-17-8-20-5-21-2-20v-1373l2-21 5-20 8-20 8-14 15-20h2l2-4 4-4h2v-2l17-13 15-9 16-7 17-5 19-3 20-1h212v-22l3-17 4-12 9-16 11-12 10-9 16-9 16-5 20-2 64-1 12-3 13-7 9-8 9-14 8-18 10-18 10-14 9-11 15-15 14-11 14-9 25-12 20-6 20-4zm4 59-16 3-21 7-19 11-15 13-9 10-7 10-7 12-11 24-8 13-8 10-7 8-10 8-13 8-12 6-15 5-16 3-36 1h-22l-19 1-8 3-7 6-4 6-2 6-1 14v116l1 3h234l384-1 1-126-2-9-6-10-9-6-5-2-57-1-22-1-19-4-20-8-14-9-11-9-7-7-10-13-10-18-7-16-9-15-8-10-14-14-14-10-19-10-15-5-16-3zm-562 256-19 1-14 3-13 5-12 7-12 11-8 9-6 9-8 19-2 11-1 61v1318l2 19 5 15 9 16 11 12 9 8 16 9 10 4 17 3h1192l14-3 15-6 13-8 10-9 9-10 6-10 5-11 4-17 1-40v-250l-6 2-20 10-19 10-32 16-19 10-44 22-19 10-56 28-9 2h-7l-9-3-7-5-6-10-2-7v-42l3-226 1-11 8-16 12-19 30-48 13-21 12-19 13-21 15-24 12-19 16-26 12-19 10-16 13-21 12-19 13-21 12-19 11-18 10-16 12-19 8-13 6-10 1-189v-267l-1-48-4-16-8-16-6-9-9-10-14-10-14-7-13-4-6-1-55-1h-174l-1 1-1 50-2 15-5 12-7 11-7 7-14 8-14 4-15 1h-616l-13-2-11-4-11-7-8-8-8-13-4-13-1-8-1-54zm1543 258-15 4-11 7-9 10-24 38-16 26-12 19-3 4 1 3 12 7 21 13 28 17 34 21 28 17 26 16 28 17 8 5h3l12-20 6-9 7-11 11-18 11-17 10-18 3-11v-14l-4-14-6-9-5-5-9-7-21-13-28-17-47-29-14-8-15-4zm-122 160-11 18-12 19-8 13-12 19-25 40-13 21-12 19-35 56-13 21-12 19-35 56-13 21-10 16-12 19-8 13-12 19-8 13-12 19-8 13-12 19-8 13-12 19-8 13-12 19-15 24-11 18v3l20 12 23 14 21 13 28 17 16 10 23 14 21 13 23 14 9 6 5-1 14-23 14-22 15-24 16-26 24-38 16-26 12-19 15-24 13-21 12-19 13-21 12-19 10-16 11-18 12-19 8-13 12-19 8-13 12-19 8-13 12-19 8-13 12-19 8-13 12-19 8-13 12-19 8-13 11-18-4-4-24-15-26-16-28-17-21-13-23-14-60-37zm-362 623-2 133v35l19-9 33-17 17-9 82-41-4-4-23-14-21-13-28-17-24-15-20-12-21-13z"/>
<path transform="translate(272,1495)" d="m0 0h15l10 5 12 11 57 57 4 3v2h2v2h2v2h2v2l4 2 9 9h3l2-4 28-28h2l1-3 7-6 5-6 8-7 35-35 9-5 3-1h14l9 4 7 6 5 9 2 10-2 11-6 9-3 4h-2l-2 4h-2v2h-2v2l-8 7-69 69 2 4 55 55 6 5 22 22 8 11 3 10-1 11-5 9-4 5-8 5-6 2h-12l-9-4-11-9-82-82-4 1-80 80-8 7-8 5-6 2h-11l-10-4-7-6-5-8-2-7v-9l3-9 6-8 79-79h2v-2l6-5-2-4-73-73-8-7-9-11-3-6-1-4v-10l5-12 5-5 5-4z"/>
<path transform="translate(679,1079)" d="m0 0h600l10 3 8 6 6 8 2 6v13l-3 7-4 6-8 7-10 3h-601l-9-3-9-8-5-9-1-4v-11l4-10 7-8 9-5z"/>
<path transform="translate(687,636)" d="m0 0h576l20 1 9 4 6 5 6 10 1 4v13l-5 10-4 5-10 6-4 1-37 1h-553l-15-1-10-5-7-7-4-8-1-3v-11l3-9 3-5h2l2-4 12-6z"/>
<path transform="translate(686,804)" d="m0 0h361l43 1 9 4 7 6 6 12v15l-6 11-8 7-9 3-32 1h-366l-14-1-10-5-7-7-4-8-1-3v-11l3-9 3-5h2l2-4 12-6z"/>
<path transform="translate(680,1247)" d="m0 0h406l10 3 8 6 6 8 2 6v14l-5 10-5 6-7 4-8 2h-408l-9-3-9-8-5-9-1-4v-10l3-9 4-6 9-7z"/>
<path transform="translate(678,1522)" d="m0 0h410l9 3 8 6 6 10 1 3v15l-4 8-7 8-7 4-5 1-20 1h-382l-13-2-7-4-5-5-5-7-2-6v-11l3-9 4-6h2v-2l10-6z"/>
<path transform="translate(519,647)" d="m0 0h9l11 4 8 7 6 12v13l-3 8-9 10-10 8-18 13-21 16-19 14-44 33-19 14-13 10-19 14-13 10-19 14-18 13-7 3h-15l-9-4-9-9-24-34-13-18-10-14-11-16-4-8-1-11 3-10 7-9 7-5 6-2h14l10 5 6 5 13 18 20 28 7 10v2l7-3 21-16 19-14 21-16 19-14 100-75 10-5z"/>
<path transform="translate(518,1071)" d="m0 0h11l8 3 6 4 7 8 3 8v13l-6 12-7 7-18 13-176 132-17 12-9 4h-13l-8-3-10-9-10-14-24-34-13-18-10-14-6-11-1-5v-7l4-11 7-8 8-5 8-2 11 1 10 5 7 7 13 19 12 16 13 19 4 1 13-10 19-14 21-16 19-14 21-16 19-14 48-36 21-16 11-6z"/>
<path transform="translate(793,208)" d="m0 0h12l14 2 15 5 13 7 10 8 7 6 9 12 6 11 5 12 3 15v20l-4 17-7 16-9 13-11 11-10 7-14 7-13 4-9 2h-22l-18-4-16-8-9-6-10-9-7-8-8-13-5-11-4-18v-20l4-18 6-14 8-12 11-12 12-9 14-7 13-4zm2 59-9 3-6 4-7 8-3 10v8l4 11 4 5 9 6 7 2h10l10-4 8-6 5-10 1-4v-9l-4-10-7-8-10-5-4-1z"/>
<path transform="translate(678,1690)" d="m0 0h280l9 3 8 7 4 5 3 7 1 8-2 9-4 8-7 7-10 4-9 1h-269l-11-3-8-6-6-9-2-6v-11l4-10 3-5h2v-2l10-6z"/>
</svg>
