<?xml version="1.0" encoding="UTF-8"?>
<svg version="1.1" fill="#ddd" viewBox="0 0 2048 2048" width="512" height="512" xmlns="http://www.w3.org/2000/svg">
<path transform="translate(201,975)" d="m0 0h501l25 2 19 4 23 8 25 12 21 13 16 12 16 13 13 12 5 5 7 6 7 8 7 7 9 11 13 15 14 19 10 14 13 20 14 22 6 10 6 14 7 23 6 28 4 28 3 31 1 16 1 36v510l-1 2-33 1-5-2-11-12-14-13-19-14-25-15-15-8-28-12-28-10-31-9-38-8-27-4-17-1-501-1-1-1v-790z"/>
<path transform="translate(1333,979)" d="m0 0h501l3 2v789l-1 2-508 1-21 2-28 5-34 8-29 9-25 9-25 11-21 11-19 12-16 12-14 12-12 12h-36l-1-1v-529l2-38 4-37 4-24 6-26 9-27 13-25 11-17 10-15 13-18 11-14 18-22h2l2-4 6-7 17-17 8-7 15-13 17-13 15-10 21-12 18-8 21-7 19-4z"/>
<path transform="translate(85,1123)" d="m0 0h66l2 3-1 705h590l15 2 26 7 32 11 29 14 12 8 17 12 19 14 10 7 15 10 19 10 9 3 5 1h140l16-5 20-11 19-13 16-12 18-13 17-11 17-9 28-11 26-8 21-5 10-1h589v-706l2-2h65l3 2v861l-1 2h-656l-13-3-12-6-13-11-11-14-8-13-5 2-6 4-6 5-12 16-8 7-13 5-14 3-9 1h-290l-19-2-18-4-12-5-9-6-8-11-7-8-9-6-5-1-6 10-8 11-9 10-13 9-16 6-7 1h-650l-1-1v-862z"/>
<path transform="translate(1e3 184)" d="m0 0h8l28 10 29 10 28 10 29 10 28 10 29 10 49 17 48 17 28 10 29 10 28 10 21 7 48 17 28 10 29 10 28 10 29 10 60 21 15 6 2 6v294l14 6 11 8 10 10 6 9 5 14 1 4v22l-5 15-8 12-7 7-2 1 1 6 36 94 1 5h-152l-1-2 7-18 10-30 15-43 3-8-1-4-9-9-8-13-4-13-1-16 3-16 5-12 7-10 8-8 13-8 5-2h3v-291l-28 10-52 18-37 13-80 28-28 10-84 29-42 15-84 29-37 13-28 10-81 28-8-1-36-13-52-18-94-33-48-17-49-17-48-17-49-17-45-16-49-17-48-17-49-17-28-10-7-2h-8v-4h8l42-15 29-10 134-47 42-15 29-10 60-21 42-15 121-42 34-12 60-21z"/>
<path transform="translate(1303,551)" d="m0 0 2 3-1 199-7 9-11 10-19 12-25 12-22 8-29 8-36 7-38 5-37 3-21 1h-77l-41-2-43-4-34-5-27-5-30-7-29-9-21-8-23-11-17-11-2-7v-206l6 1 34 12 29 10 45 16 29 10 49 17 37 13 33 12 29 10 7-1 54-19 116-41 29-10 28-10 29-10z"/>
</svg>
