<?xml version="1.0" encoding="UTF-8"?>
<svg version="1.1" fill="#ddd" viewBox="0 0 2048 2048" width="512" height="512" xmlns="http://www.w3.org/2000/svg">
<path transform="translate(363,603)" d="m0 0h1680l5 2v10h-1l-4 58-4 49-6 51-7 49-11 61-12 54-12 47-12 41-13 41-15 42-17 43-11 26-15 33-14 29-11 22-10 18-6 11-15 27-8 13-13 21-11 17-10 15-9 13-12 17-12 16-10 13-13 16-11 14-10 11-7 9h-2l-2 4-7 8h-2l-2 4-36 36-13 10-14 7-14 3h-1582l-16-4-12-7-8-7-9-12-7-16v-30h2l1-6 7-13 9-10 11-11 8-7 7-7 7-8 8-8 7-8 8-9 9-11 2-3h2l2-4 13-16 14-19 10-13 11-16 22-33 13-21 15-25 13-24 10-18 8-16 9-19 8-16 13-29 14-34 13-34 15-43 13-42 10-37 9-36 10-47 9-49 8-57 4-37 4-49 3-49z"/>
<path transform="translate(2047,1193)" d="m0 0h1v685l-7 15-7 10-4 5-11 8-12 5-6 2-7 1h-1579l-12-3-12-6-11-9-9-12-5-11-2-8-1-10v-180l2-2 1277-1 21-3 23-6 19-8 17-9 13-9 10-8 10-9 8-7 16-16 6-5 2-3h2l2-4 14-14 1-2h2l2-4 7-8h2l2-4 13-15 12-14 10-13 9-11 24-32 13-19 10-14 17-26 8-13 15-24 12-21 13-23 12-23 10-19 8-16 13-27 12-27 13-30z"/>
<path transform="translate(779,123)" d="m0 0h9l16 3 12 6 10 8 8 9 8 16 2 9v69h299v-64l2-12 5-12 8-12h2l2-4 11-8 11-5 15-3h9l16 3 12 6 9 7 9 10 8 16 2 9v69h303v-63l3-16 7-14 5-7h2l2-4 11-8 11-5 15-3h9l16 3 12 6 9 7 7 7 8 14 3 8 1 6v69h301l16 2 10 4 12 8 8 8 7 11 6 13v195h-1684l-1-1v-184l2-12 5-12 7-10 5-6 13-9 12-5 14-2h302v-64l2-12 5-12 8-12h2l2-4 11-8 11-5z"/>
<path transform="translate(2047,617)" d="m0 0 1 4z"/>
<path transform="translate(2047,1879)" d="m0 0"/>
<path transform="translate(2047,285)" d="m0 0"/>
</svg>
