<?xml version="1.0" encoding="UTF-8"?>
<svg version="1.1" viewBox="0 0 2048 2048" width="512" height="512" xmlns="http://www.w3.org/2000/svg">
<path transform="translate(591,102)" d="m0 0h1124l9 3 8 7 4 8 1 6v841h46l10 3 8 7 5 10v126l-3 7-6 8-10 5-6 1-966 1v115l-1 25 19 3 21 6 16 7 18 10 13 10 10 9 9 9 13 17 9 16 7 15 5 15 5 24 1 14v10l-2 20-4 19-8 22-10 19-8 11-7 9-11 12h-2l-2 4-8 5-1 2 5 1 21 11 16 10 14 10 14 12 12 11 9 10 11 13 13 19 8 13 3 6h2l10-18 14-20 12-14 7-8 12-12 11-9 19-14 22-13 17-8 1-1-9-7-15-15-12-16-12-21-6-15-6-21-3-21v-22l3-21 5-19 6-15 8-16 10-15 11-13 13-13 16-12 17-10 22-9 21-5 15-2h27l21 3 15 4 20 8 18 10 16 12 12 11 11 12 11 16 7 12 8 19 5 18 3 17v37l-3 17-6 21-8 18-11 18-13 16-13 13-7 5h-2v2l5 1 26 14 15 10 12 9 13 11 4 3v2l4 2 7 8 7 7 11 14 7 10 10 16 6 10 5-8 8-14 8-11 10-13 12-14 13-13 11-9 13-10 19-12 23-12 4-2-10-8-14-14-12-16-11-19-7-17-6-21-3-20v-24l3-21 4-15 7-19 9-17 12-17 8-10h2l2-4 10-9 18-13 16-9 20-8 14-4 20-3h32l19 3 17 5 15 6 17 9 17 12 13 12 7 7 13 17 8 13 8 18 6 18 4 23v35l-3 17-4 15-7 18-9 17-10 14-11 13-10 10-8 5 4 3 25 13 21 14 16 13 12 11 10 10v2h2l8 10 12 16 9 15 11 21 8 20 7 23 5 26 2 23v143l-3 8-7 9-9 4-5 1h-1797l-10-3-8-7-4-7-1-4-1-31 1-120 3-24 5-22 7-23 9-21 11-20 12-18 8-10 9-11 12-13 10-9 14-11 21-14 18-10 13-6-14-12-12-13-11-15-10-17-8-20-5-19-3-21v-21l3-21 5-19 8-19 7-13 8-12 9-11 5-6 3-3 1-492 3-23 6-25 9-24 11-21 7-11 8-11 9-11 11-12 4-4h2v-2l14-11 14-10 15-9 19-9 20-7 20-5 21-3 26-2-12-13-14-19-9-16-8-17-6-19-4-18-2-15v-30l4-26 8-26 8-18 14-23 11-13 7-8 11-11 13-10 15-10 17-9 21-8 25-6 12-2v-149l1-40 5-10 5-5 6-4zm32 52v161l21 5 19 7 16 8 15 9 13 10 10 9 14 14 13 18 9 15 7 15 7 20 5 23 2 16v24l-3 23-5 20-7 19-8 16-9 15-10 13-12 13-2 3h167l5-3 11-14 13-16 11-14 9-11 11-14 1-3h2l13-17 1-3h2l13-17 10-12 7-9 11-12 14-10 15-8 15-5 19-3h16l19 3 17 6 14 8 13 10 8 8 10 14 8 16 5 17 1 6v30l-4 18-8 18-9 14-13 17-14 18-10 13-11 14-8 11-13 16-12 16-28 36-13 17-11 14-13 17-11 14-7 6-5 2-7 1-167 1v127h870v-813zm-45 210-18 3-17 5-19 9-17 12-14 13-11 14-10 16-8 20-4 14-3 26v14l3 18 6 19 8 16 9 14 11 13 7 7 13 10 15 9 16 7 19 5 14 2h26l13-2 15-4 15-6 12-6 13-9 14-12 10-11 10-15 8-16 6-18 3-14 1-8v-23l-3-19-5-17-10-21-8-12-11-13-7-7-13-10-15-9-20-8-14-4-14-2zm489 148-13 4-11 6-7 6-9 11-13 16-8 10-11 14-13 16-8 10-11 14-13 16-8 10-11 14-13 16-8 5-12 2-459 1-19 3-15 4-16 6-17 9-13 9-11 9-7 6-7 8-9 11-9 14-9 17-7 20-4 16-2 20-1 138-1 240v72l6-1 16-5 15-3 9-1h28l24 4 12 4h2l1-425 3-10 5-7 6-4 6-2h10l10 4 5 5 4 6 2 9 1 455 12 11 1 2h2l2 4 10 13 9 15 8 17 6 19 3 15 1 8v34l-3 17-4 15-6 16-10 19-10 14-11 13-7 6v2l-4 2-7 5v2l19 9 22 13 16 12 13 11 10 9 14 15 10 13 14 21 8 14 3-1 10-18 14-20 10-12 7-8 15-15 11-9 18-13 22-13 17-8-1-3-10-8-10-10-11-14-9-14-8-15-7-20-4-16-2-15v-27l4-24 9-27 10-19 12-17 9-10 2-4 4-2 11-10 18-12 16-8 16-6 11-3 1-1 1-468 4-10 5-5 6-4 3-1 24-1h65l97-1 6-7 13-17 14-18 10-13 11-14 10-13 13-17 10-13 14-18 10-13 11-14 9-12 11-14 10-14 4-8 3-10v-19l-4-13-7-12-7-7-10-6-14-4zm-252 507v62l1 1h924l14-1v-62zm-471 307-18 3-15 5-15 8-12 9-8 7-9 11-7 10-8 17-4 12-3 21v12l2 15 5 17 8 17 10 14 6 7 8 7 14 10 14 7 11 4 16 3 12 1h10l15-2 21-7 15-8 16-12 8-8 10-14 8-16 5-15 3-18v-14l-2-16-4-15-7-16-10-15-9-10-10-9-18-11-15-6-16-4-7-1zm446 0-17 3-15 5-14 7-14 10-14 14-9 13-8 16-5 16-2 11v28l5 21 7 16 9 14 10 11 5 5 10 8 16 9 16 6 15 3 8 1h13l20-3 15-5 16-8 12-9 12-11 10-13 8-15 5-14 3-12 1-7v-23l-4-20-6-15-8-15-9-11-11-11-14-10-19-9-19-5-8-1zm452 0-17 2-17 5-16 8-15 11-12 12-10 14-10 21-4 16-1 6v28l5 20 5 13 7 12 9 12 12 12 13 9 15 8 16 5 21 3h13l18-3 15-5 14-7 12-8 10-9 7-7 10-15 6-12 5-16 3-16v-22l-4-20-6-16-9-15-8-10-11-11-13-9-15-8-20-6-14-2zm448 0-17 2-17 5-16 8-10 7-10 8v2h-2l-9 11-6 9-8 16-4 11-3 14-1 11v12l2 13 4 15 7 16 9 14 11 13 12 10 13 8 11 5 13 4 18 3h18l17-3 15-5 14-7 12-8 10-9 9-10 9-14 7-16 4-15 2-13v-16l-3-19-6-18-9-16-8-10-9-10-13-10-19-10-16-5-10-2-10-1zm-452 269-20 2-24 5-23 8-16 8-11 6-13 9-10 8-12 11-10 10-8 10-11 16-8 14-8 17-7 21-5 22-2 23v109h394l1-6v-96l-1-20-3-20-5-19-7-19-8-16-8-14-11-15-9-10-7-8-12-11-18-13-21-12-21-9-24-7-19-3-13-1zm448 0-20 2-20 4-16 5-20 8-18 10-13 9-14 11-18 18v2h-2l-9 12-10 15-12 23-9 25-5 22-2 22v111h394v-118l-3-23-7-25-8-20-9-17-10-15-11-14-18-18-17-13-14-9-19-10-21-8-19-5-20-3-14-1zm-1353 6-21 3-22 6-16 6-16 8-14 8-16 12-12 10v2l-4 2v2l-4 2-7 8-13 17-9 15-11 23-8 24-4 19-2 27v99h395l1-6v-97l-2-22-5-24-6-18-9-20-8-14-9-13-11-14-16-16-14-11-15-10-14-8-16-7-24-8-14-3-17-2zm448 0-21 3-22 6-16 6-17 8-19 12-10 8-14 12-7 8-5 5-10 12-11 17-9 17-8 20-6 23-3 18-1 14v104h395l1-19v-82l-2-23-4-20-6-20-9-21-9-16-12-17-12-14-11-11-11-9-17-12-27-14-25-9-18-4-17-2z"/>
</svg>
