<?xml version="1.0" encoding="UTF-8"?>
<svg version="1.1" viewBox="0 0 2048 2048" width="512" height="512" xmlns="http://www.w3.org/2000/svg">
<path transform="translate(220,180)" d="m0 0h1219l9 2 8 6 6 7 3 10v1427h219l9 3 10 9 4 8 1 6v64l-2 21-4 17-6 17-8 16-8 12-8 10-11 12-13 11-14 9-15 8-17 6-16 4-13 2-24 1h-1190l-30-1-17-3-16-5-15-6-18-10-14-11-19-19-10-14-8-14-8-18-5-19-2-12-1-13v-1518l3-9 4-6 8-7zm34 57-1 6v1477l2 18 5 16 8 15 9 11 10 10 14 9 12 6 14 4 20 2 19-2 18-6 16-9 13-11 10-12 7-12 6-16 3-18 1-69 3-9 5-7 10-6 4-1 946-1v-1395zm242 1452-1 39-2 17-5 19-7 18-7 13-8 12-2 4h1085l22-1 14-3 15-6 14-9 10-9 10-11 9-16 5-15 2-10 1-14v-28z"/>
<path transform="translate(1670,180)" d="m0 0h82l15 2 17 5 16 8 16 12 10 10 10 14 8 15 6 20 1 7 1 68v809l-1 132-7 17-18 39-16 34-11 24-24 52-9 20-7 15-12 25-7 16-7 11-7 6-8 3h-14l-9-4-7-7-10-19-13-29-7-15-11-23-13-28-38-82-15-33-9-20-1-5v-1e3l3-17 5-15 8-15 8-11 3-4h2l2-4 10-9 14-9 12-6 17-5zm3 57-14 3-10 6-10 9-6 9-4 12-1 6v83h165l1-1v-86l-4-13-7-11-9-8-14-7-12-2zm-45 184v826h54l1-3v-822l-2-1zm114 0-2 1v825h54v-825zm-98 883 9 20 14 30 19 41 15 32 7 16 2 4 3-1 15-32 15-33 18-38 15-33 2-6z"/>
<path transform="translate(1091,304)" d="m0 0h11l10 4 8 7 11 14 18 22 13 16 8 10 13 16 9 11 4 4 12-14 8-10 13-16 11-14 2-3h2l2-4 11-14 14-17 5-6 9-5 4-1h11l10 4 7 6 5 9 1 4v244l-4 9-7 8-7 4-4 1h-14l-10-5-7-8-4-11-1-154-8 10-11 13-11 14-9 11-11 13-12 6-4 1h-7l-11-4-8-7-8-9-11-14-13-16-11-13-4-5-1 153-2 8-5 8-7 6-8 3h-14l-10-5-7-8-4-10v-243l4-10 6-7 9-5z"/>
<path transform="translate(858,304)" d="m0 0h150l10 4 8 7 5 10v247l-5 10-7 7-10 4h-14l-8-4-6-5-5-8-2-9v-90h-82v92l-3 9-6 8-9 6-4 1h-14l-10-5-7-8-4-9v-244l4-10 5-6 10-6zm34 57v59h82v-59z"/>
<path transform="translate(361,304)" d="m0 0h150l10 4 8 7 5 10 1 10-3 10-6 8-9 6-12 2h-110v59h113l9 2 9 6 6 8 3 10-1 10-4 9-7 7-8 4-5 1-114 1-1 59h118l10 5 7 7 4 9 1 10-3 10-6 8-7 5-6 2-7 1h-140l-10-2-9-6-6-8-3-9v-241l4-11 5-6 10-6z"/>
<path transform="translate(670,1085)" d="m0 0h581l16 1 10 4 7 7 5 10 1 8-2 9-5 8-9 8-7 2-24 1h-580l-11-1-10-5-8-9-3-8v-12l4-9 7-8 10-5z"/>
<path transform="translate(654,808)" d="m0 0h611l9 3 8 6 6 9 2 12-2 9-6 9-6 5-8 3-8 1h-604l-10-3-8-6-5-8-2-6v-11l4-10 6-7 9-5z"/>
<path transform="translate(657,1363)" d="m0 0h602l13 2 10 7 6 10 2 10-2 10-6 9-6 5-7 3-6 1-83 1-526-1-8-3-6-4-6-8-3-7v-12l4-10 7-7 9-5z"/>
<path transform="translate(594,304)" d="m0 0h11l10 4 8 7 13 18 28 38 13 18 6 8v2h3l12-17 14-19 26-36 9-12 5-5 8-5 4-1h11l10 4 8 7 4 8 2 11-3 10-7 11-13 18-11 15-13 18-28 38-2 3 1 5 14 19 26 36 28 38 6 11 2 11-3 10-6 8-7 6-11 3-10-1-10-5-8-9-26-36-14-19-13-18-5-6v-2l-5 5-14 19-13 18-14 19-13 18-7 9-10 6-8 2-10-1-10-5-7-8-4-11 1-12 5-10 13-17 24-33 13-18 14-19 7-10-2-6-10-13-10-14-13-18-28-38-9-13-4-8-1-9 2-9 6-10 9-6z"/>
<path transform="translate(399,1019)" d="m0 0h132l13 2 10 7 6 10 2 13v26l-1 110-6 12-7 6-8 3-8 1h-134l-9-2-8-6-6-7-3-8v-144l3-7 4-6 7-6 6-3zm30 57v76h75v-76z"/>
<path transform="translate(394,1297)" d="m0 0h144l8 3 8 6 6 9 1 4 1 21-1 124-3 8-9 10-6 3-4 1-103 1h-32l-11-1-10-5-8-9-3-8v-145l6-12 7-6zm35 57v75l74 1 1-1v-75z"/>
<path transform="translate(566,756)" d="m0 0h13l12 6 7 9 3 9v9l-4 10-7 9h-2l-2 4h-2l-2 4h-2l-2 4h-2l-2 4h-2l-2 4h-2v2h-2v2h-2v2h-2v2h-2v2h-2v2h-2l-2 4h-2l-2 4h-2l-2 4h-2l-2 4h-2l-2 4h-2l-2 4h-2l-2 4h-2l-2 4h-2l-2 4h-2l-2 4h-2l-2 4h-2l-2 4h-2l-2 4-8 8h-2l-2 4h-2v2l-11 8-6 2h-14l-10-5-65-65-6-12v-10l3-9 9-10 8-4 4-1h9l11 4 12 11 31 31 4-1 83-83 8-5z"/>
<path transform="translate(1126,416)" d="m0 0"/>
</svg>
