<?xml version="1.0" encoding="UTF-8"?>
<svg version="1.1" viewBox="0 0 2048 2048" width="512" height="512" xmlns="http://www.w3.org/2000/svg">
<path transform="translate(443,1081)" d="m0 0h25l21 2 21 4 24 7 19 8 21 11 15 10 13 10 10 9 8 7 14 15 12 16 10 16 8 14 10 24 6 19 5 23 2 14 1 15v14l-2 25-5 25-5 18-8 20-8 16-8 14-12 17-11 13-12 13-4 2v2l-11 9-9 7h-2v2l11 3 20 8 22 10 22 12 17 10 22 15 16 12 13 11 20 18 15 15 7 8 13 15 14 19 6-1 17-10 28-13 20-8 12-4v-2l-15-13-9-8v-2l-4-2-7-8-9-10-13-18-12-21-9-19-8-24-5-22-3-24v-30l2-19 4-20 4-15 7-20 12-25 12-19 6-8 8-10 3-4h2l2-4 16-16 11-9 15-11 15-9 16-8 11-5 24-8 16-4 20-3 13-1h26l26 3 16 3 20 6 24 10 19 10 18 12 14 11 15 14 7 7 9 11 10 13 11 18 9 17 10 26 6 23 4 24 1 13v20l-2 23-5 25-6 20-9 22-9 17-9 14-8 11-9 11-14 15-11 10-14 11 27 10 24 11 25 13 4 3h5l11-15 9-11 10-11 7-8 24-24 11-9 13-11 18-13 15-10 15-9 22-12 23-11 26-10 7-3-10-8-4-3v-2l-4-2-22-22-13-17-10-15-9-16-9-20-8-25-5-26-2-18v-25l2-21 5-25 6-20 8-20 10-19 11-17 12-16 4-5h2l2-4 16-16 11-9 15-11 19-11 23-11 19-7 20-5 21-3 12-1h27l26 3 16 3 20 6 20 8 16 8 18 11 16 12 14 12 14 14 9 11 11 15 12 20 10 21 7 20 6 24 3 19 1 11v26l-2 20-5 25-6 20-8 20-11 21-10 15-9 12-8 10h-2l-2 4-13 13-11 9-8 6-1 2 8 2 21 8 26 12 26 14 25 16 19 14 13 11 11 9 15 14 14 14 9 11 9 10 10 13 12 17 11 17 14 25 13 27 13 34 7 24 7 30 5 30v17l-4 10-8 9-8 4-9 2h-556l8 30 5 24 4 25v16l-7 14-7 6-9 4-6 1h-793l-11-4-9-8-6-12v-19l5-30 7-30 5-17h-559l-11-4-9-8-6-12v-19l5-30 6-27 11-35 10-25 9-20 12-22 9-15 8-12 12-17 8-11h2l2-4 6-8h2l2-4 11-12 23-23 11-9 16-13 18-13 22-14 29-16 29-13 23-8v-2l-14-12-15-14-7-8-9-10-12-17-9-15-12-25-9-27-5-25-2-17v-33l3-24 5-22 8-24 13-27 11-18 10-13 9-11 21-21 17-13 15-10 16-9 18-8 24-8 22-5 14-2zm4 65-20 2-24 6-15 6-19 10-17 12-12 11-11 11-9 12-9 14-8 16-7 18-5 21-2 19v20l3 22 5 19 8 20 7 13 8 12 7 9 9 10 10 10 16 12 15 9 17 8 21 7 24 4h34l18-3 21-6 16-7 17-9 14-10 11-10 2-1v-2l4-2v-2h2l9-11 9-12 10-18 7-17 4-13 3-12 2-15v-32l-3-19-5-19-9-21-10-18-10-13-11-12-9-9-16-12-19-11-19-8-17-5-16-3-14-1zm1136 0-19 2-21 5-19 7-17 9-11 7-16 13-13 13v2h-2l-13 18-8 14-8 17-7 23-3 19-1 13v12l2 19 4 18 7 21 10 20 12 17 12 14 8 8 14 11 14 9 17 9 19 7 17 4 14 2h34l19-3 20-6 13-5 17-9 16-11 10-9 8-7 10-11 10-14 8-13 8-18 7-23 3-18 1-13v-11l-2-21-4-18-7-21-8-16-7-12-9-12-9-10-13-13-15-11-15-9-15-7-21-7-20-4-13-1zm-567 120-20 2-21 5-17 6-21 11-17 12-13 12-10 10-9 12-9 14-8 16-7 19-5 21-2 20v15l3 25 5 19 9 22 8 14 12 17 12 13 7 7 14 11 18 11 19 9 19 6 24 4h34l19-3 23-7 18-8 18-11 13-10 15-14 10-12 12-18 10-21 6-18 4-19 2-22-1-20-3-19-6-21-8-18-7-13-8-12-11-13-14-14-16-12-19-11-19-8-17-5-16-3-16-1zm-586 279-29 3-26 5-26 7-24 8-25 11-25 13-16 10-12 8-21 16-11 10-8 7-19 19-7 8-13 16-13 18-15 25-12 23-9 21-8 23-7 24-2 7v4h542l6-10 13-22 8-12 12-17 7-9v-2h2l8-10v-2h2l8-10 28-28 13-10-2-5-11-14-9-11-11-12-20-20-11-9-15-12-27-18-23-13-25-12-24-9-19-6-28-7-24-4-24-2zm1137 0-28 3-31 6-28 8-27 10-29 14-20 11-21 14-17 13-14 12-13 12-16 16-9 11-12 15-5 6v3l11 9 16 15 11 11 7 8 9 10 11 14 13 18 13 20 13 23 3 4h542l-4-17-6-21-10-27-11-24-13-24-14-21-9-12-11-14-14-15-20-20-11-9-15-12-24-16-19-11-19-10-32-13-29-9-27-6-20-3-24-2zm-569 120-28 3-27 5-26 7-26 9-25 11-21 11-21 13-14 10-12 9-14 12-10 9-18 18-9 11-11 13-14 20-13 21-13 25-8 19-7 19-8 27-3 10v4h708l-5-21-7-23-11-28-10-21-13-23-8-12-10-14-11-14-12-14-24-24-11-9-16-13-24-16-21-12-15-8-26-11-30-10-24-6-30-5-24-2z"/>
<path transform="translate(789,31)" d="m0 0h470l20 2 11 3 12 5 11 6 10 8 7 6 11 14 9 17 4 13 2 11 1 49-1 297-2 12-5 15-7 13-8 11-2 3h-2l-2 4-12 10-16 9-14 5-14 3-28 1h-111l-1 6-14 33-18 43-10 24-13 31-22 52-6 10-9 8-12 4-13-1-10-5-8-8-10-21-19-46-19-45-10-24-18-43-6-15v-3h-118l-22-1-14-3-13-5-13-7-9-7-7-6-9-11-9-14-6-15-3-15-1-10v-329l2-17 5-16 8-16 11-14 7-7 14-10 16-8 15-4zm-1 65-9 1-8 4-8 7-5 10-1 3-1 11v319l2 11 6 10 9 7 8 3 12 1h132l18 1 10 4 6 5 8 14 44 105 11 27 3 1 5-11 8-20 6-13 14-34 15-36 9-22 6-10 7-6 9-4 18-1 144-1 9-3 7-5 6-8 3-10v-334l-4-10-4-6-8-6-8-3-7-1z"/>
<path transform="translate(123,443)" d="m0 0h481l16 2 16 5 14 7 11 8 10 9 10 13 9 17 5 17 1 7 1 45v75l-1 226-3 15-6 16-9 15-9 10-7 7-13 9-12 6-11 4-15 3h-33v101l-3 12-7 10-9 6-11 3-12-1-10-5-22-22-7-8-16-16-7-8-12-12-7-8-17-17v-2h-2l-7-8-24-24-289-1-18-4-16-7-11-7-12-11-9-10-8-13-5-11-3-10-2-10-1-13v-325l2-18 5-16 8-16 10-13 10-10 13-9 14-7 14-4zm2 65-9 2-9 6-6 7-4 10-1 10v319l2 12 6 10 9 7 9 3 299 1 9 2 8 4 11 10 1 2h2l2 4 21 21 7 8 17 17 3 4h2l2 4 6 5 1-51 2-9 4-8 3-3v-2l14-7 7-1 62-1 11-4 8-7 4-5 3-10v-335l-4-10-8-9-8-4-8-2z"/>
<path transform="translate(1443,443)" d="m0 0h481l17 2 18 6 14 8 11 8v2l4 2 8 9 9 14 7 15 3 13 1 7v345l-3 15-6 16-9 15-9 10-7 7-13 9-17 8-16 4-6 1-287 1-22 22-7 8-16 16-7 8-18 18-1 2h-2l-2 4-16 16-5 6h-2l-2 4-20 20-9 5-8 2-11-1-9-4-8-6-6-10-2-7v-104h-34l-18-4-16-7-11-7-12-11-9-10-8-13-5-11-4-13-2-18v-327l2-19 6-18 7-13 10-13 10-10 13-9 15-7 13-4zm2 65-9 2-9 6-6 7-4 10-1 11v318l2 12 6 10 9 7 9 3 62 1 10 2 10 6 6 7 4 10 1 55h3l10-10v-2h2l7-8 9-9 7-8 17-17v-2h2l7-8 7-7 9-6 5-2 7-1 298-1 11-4 8-7 4-5 3-10v-335l-4-10-8-9-8-4-8-2z"/>
<path transform="translate(854,373)" d="m0 0h339l8 3 6 4 8 9 4 11v11l-4 10-6 8-5 4-9 4-5 1h-332l-8-2-8-4-8-9-4-8-1-3v-13l4-10 4-6 8-6z"/>
<path transform="translate(194,785)" d="m0 0h340l9 4 8 7 6 9 2 6v12l-4 10-6 8-9 6-6 2-7 1h-327l-10-2-10-6-6-7-4-8-1-3v-13l3-9 7-9 9-6z"/>
<path transform="translate(854,257)" d="m0 0h338l11 4 9 8 5 9 2 6v11l-4 10-4 6-8 7-13 4h-332l-8-2-8-4-8-9-4-8-1-3v-13l5-12 5-5 6-5z"/>
<path transform="translate(855,141)" d="m0 0h336l10 3 8 6 7 9 3 9v11l-4 11-9 10-8 4-8 2h-333l-10-3-8-6-5-6-4-8-1-3v-13l5-12 8-8 9-5z"/>
<path transform="translate(1513,785)" d="m0 0h341l9 4 8 7 6 9 2 7v11l-5 12-7 8-10 5-13 2h-324l-10-2-10-6-6-7-4-8-1-3v-13l3-9 7-9 9-6z"/>
<path transform="translate(194,553)" d="m0 0h338l11 4 9 8 5 9 2 6v11l-4 10-6 8-5 4-10 4-5 1h-331l-8-2-9-5-7-8-4-8-1-3v-13l4-10 4-6 8-6z"/>
<path transform="translate(1514,669)" d="m0 0h339l8 3 6 4 8 9 4 11v11l-4 10-6 8-5 4-10 4-8 1h-326l-10-2-9-5-7-8-4-8-1-3v-13l4-10 5-7 9-6z"/>
<path transform="translate(194,669)" d="m0 0h339l8 3 6 4 8 9 4 11v11l-4 10-6 8-5 4-10 4-7 1h-326l-11-2-10-6-6-7-4-8-1-3v-13l4-10 5-7 9-6z"/>
<path transform="translate(1514,553)" d="m0 0h338l11 4 9 8 5 9 2 6v11l-4 10-6 8-5 4-10 4-5 1h-331l-8-2-9-5-7-8-4-8-1-3v-13l5-12 5-5 6-5z"/>
</svg>
