<?xml version="1.0" encoding="UTF-8"?>
<svg version="1.1" viewBox="0 0 2048 2048" width="512" height="512" xmlns="http://www.w3.org/2000/svg">
<path transform="translate(1654,473)" d="m0 0h27l16 4 14 6 13 9 12 11 28 28 10 14 7 14 4 14 2 13v10l-3 19-5 13-8 15-11 13-160 160-1 2 9 3 36 17 3 1 401 1v61h-415l-56-26-22-10-5 1-191 191 6 7 5 4v2l4 2v2h2l6 7 6 5 6 7 26 26-1 5-13 16-7 9-12 16-13 16-10 13-33 42-13 16-6 8-12 5-36 13-53 19-12 4-10 1-151 5-17 2-14 5-11 7-9 9-7 10-6 14-2 9v22l4 13 7 14 11 12 14 9 14 5 6 1h28l159-7 51-14 78-22 57-16 13-5 27-15 23-13 52-29 23-13 52-29 20-11 3-1h94l51 1 1 2v57l-1 1-130 1-26 14-21 12-27 15-23 13-25 14-27 15-23 13-18 10-8 4-52 15-144 40-17 3-86 4-70 3h-39l-21-4-16-6-17-9-12-9-6-5-4 1-28 28-9 4-38 13-36 12-55 18-90 30-7 2-1-3 76-228 4-6 13-13v-10l-23-188v-10l13-91 19-135 8-57 3-17 5-3 29-14 28-13 29-14 28-13 27-13 28-13 40-19 22-10 4-2h35l200 6 97 3h20l8-7 211-211 14-10 14-7 14-4zm6 61-10 5-6 5v2h-2v2h-2v2h-2v2h-2v2h-2v2h-2v2h-2v2h-2v2h-2v2h-2v2h-2v2h-2l-6 7-6 5-5 6-5 4 2 4 67 67 5-3 5-5v-2l3-1 5-5v-2l4-2v-2l4-2 24-24 7-11 1-4v-13l-4-10-12-13-21-21-10-6-3-1zm-106 101-6 5v2h-2v2h-2l-4 4v2h-2v2h-2v2h-2v2h-2l-6 7-6 5-6 7-6 5-6 7-6 5-6 7-6 5-6 7-6 5-6 7-6 5-6 7-6 5-6 7-6 5-6 7-6 5-6 7-84 84-6 5-7 8-251 251-6 5-6 7-60 60-2 1v2l-4 2-2 6-4 39-3 16 9-3 17-5 22-3 50-2 7-2 9-9v-2l3-1 5-6 8-7 356-356v-2l4-2 136-136v-2l3-1 5-5v-2l4-2 3-3-2-5-7-6-3-4h-2l-2-4-3-3h-2l-2-4h-2l-2-4-24-24-6-5-5-5-5-6zm-504 130-18 8-16 8-40 19-38 18-85 40-2 6-8 55-11 77-11 78-6 42v15l16 131 7 56 1 3 8-1 14-5 15-8 12-9 12-11 10-13 10-19 5-17 2-10 7-90 7-38 20-99 9-46 3-3 209-35 7-3 139-139v-2l-232-7zm60 225m-5 1-79 13-4 1-4 18-15 75 4-2 103-103v-2zm208 110-7 8-130 130v2l12-1 29-10 39-14 18-7 10-12 8-10 14-18 11-14 14-18 8-10-1-4-21-21zm-403 256m-2 1-16 9-20 8-13 4-14 3-18 2-17 1-14 43-15 45-2 7 11-3 41-14 51-17 6-4 5-5v-2l4-2v-2l4-2v-2l4-2v-2l4-2 6-6-1-9-3-16-1-19v-13z"/>
<path transform="translate(1441,1492)" d="m0 0h60l1 1v93h317l3 1v282l-3 24-5 20-7 19-8 16-8 14-9 12-9 11-15 15-17 13-14 9-17 9-19 7-18 5-22 4-2 1h-1339l-1-60 2-2h1179l-6-8-13-18-11-19-8-19-6-20-4-21-1-10-1-373zm61 155v220l2 16 6 20 9 19 9 13 9 11 7 7 17 13 21 11 15 5 14 3 8 1h25l18-3 18-6 16-8 14-9 14-12 9-10 9-13 9-17 6-18 3-14 1-11v-218z"/>
<path transform="translate(1,846)" d="m0 0 59 1 1 1v795l-1 183h1049l3 3v54l-2 4h-1046l7 19 8 16 7 11 9 11 11 11 15 11 15 8 19 7 14 3 10 1 65 1 7 2v58l-1 2h-83l-2-2-24-5-16-5-21-9-16-9-14-10-14-12-13-13-11-14-10-15-6-10-9-21-5-16-6-25v-1035z"/>
<path transform="translate(0)" d="m0 0h595l1 4v56l-1 1-533 1-1 75v648l-1 2-59 1-1-1z"/>
<path transform="translate(655)" d="m0 0h847v527l-2 1h-58l-1-1-1-465-785-1-1-50z"/>
<path transform="translate(670,521)" d="m0 0h361l1 6v52l-2 3h-359l-1-1z"/>
<path transform="translate(470,321)" d="m0 0h361v60l-3 1h-357l-1-1z"/>
<path transform="translate(210,1522)" d="m0 0h263l2 1v58l-3 2h-261l-1-1-1-12v-47z"/>
<path transform="translate(213,1121)" d="m0 0h199l38 1 1 1v58l-1 1-81 1h-156l-3-1-1-12v-47z"/>
<path transform="translate(210,721)" d="m0 0h238l3 2v58l-1 1h-240l-1-5v-54z"/>
<path transform="translate(410,1322)" d="m0 0h240l1 1v58l-3 2h-237l-1-1z"/>
<path transform="translate(411,921)" d="m0 0h238l2 1v59l-1 1h-240v-60z"/>
<path transform="translate(1819,1265)" d="m0 0h229v61h-226l-3-1-1-57z"/>
<path transform="translate(1091,521)" d="m0 0h200l1 1v58l-2 2h-198l-2-6v-53z"/>
<path transform="translate(210,321)" d="m0 0h200l1 1v58l-3 2h-197l-2-3v-56z"/>
<path transform="translate(410,521)" d="m0 0h200l1 1v59l-2 1h-198l-1-1z"/>
<path transform="translate(891,321)" d="m0 0h200l1 6v52l-1 2-3 1h-196l-2-2v-58z"/>
<path transform="translate(210,521)" d="m0 0h139l2 2v57l-2 2h-138l-2-5v-54z"/>
<path transform="translate(211,921)" d="m0 0h117l22 1 1 1v58l-1 1h-140l-1-6v-53z"/>
<path transform="translate(1151,321)" d="m0 0h140l1 1v58l-4 2h-136l-1-1-1-12v-46z"/>
<path transform="translate(510,721)" d="m0 0h140l1 1v59l-1 1h-139l-1-1z"/>
<path transform="translate(210,1322)" d="m0 0h139l2 1v58l-5 2h-135l-1-1-1-12v-47z"/>
<path transform="translate(512,1121)" d="m0 0h108l31 1v59l-1 1-139 1-1-1v-60z"/>
<path transform="translate(1296,1826)" d="m0 0h58l2 2v57l-2 2h-59v-60z"/>
<path transform="translate(1175,1826)" d="m0 0h56l5 2v56l-2 3h-59l-1-59z"/>
<path transform="translate(534,1522)" d="m0 0h60l1 1v58l-3 2h-57l-1-1z"/>
</svg>
