<?xml version="1.0" encoding="UTF-8"?>
<svg version="1.1" viewBox="0 0 2048 2048" width="512" height="512" xmlns="http://www.w3.org/2000/svg">
<path transform="translate(966,127)" d="m0 0h884l32 2 19 3 18 5 16 6 23 12 14 10 16 13 12 12 9 11 9 12 13 24 6 15 8 26 2 4h1v774h-2l-5 19-8 24-14 26-10 14-13 15-10 10-14 11-10 7-24 13-15 6-25 7-22 3-12 1-299 1-7-1 7 18 17 47 21 57 180 490 7 21 1 4v20l-4 13-6 11-9 10-7 6-14 7-11 3h-19l-13-4-11-6-12-11-7-11-7-14-18-49-19-52-17-46-19-52-17-46-19-52-7-18-7-20-14-38-36-98-23-63-17-46-14-38-13-36-2-5-3-1h-39l-1 5-13 36-7 20-9 24-7 20-9 24-7 20-9 24-7 20-9 24-8 23-8 21-8 23-8 21-8 23-8 21-8 23-8 21-7 20-9 24-7 20-9 24-7 20-9 24-7 20-21 57-21 58-8 17-7 9-4 5-10 7-11 5-10 3h-20l-13-4-11-6-12-11-7-10-5-11-2-8v-19l4-15 27-75 164-451 18-49 10-28 7-19h-212l-4 4-14 21-11 12-15 14-19 12-15 8-19 7-22 5-12 2h-33l-29-6-21-8-25-12-158-79-13-6-1 211v454l-1 16-3 12-8 15-12 12-12 7-13 4-6 1h-400l-15-4-12-7-10-9-7-10-5-10-3-14-1-341-25-11-23-14-17-14-16-16-11-14-11-17-8-16-7-17-6-23-1-8h-2v-258l1-1 3-23 9-42 12-36 9-22 15-29 11-18 8-11 10-14 10-13 15-16 3-4h2l2-4 12-12 11-9 13-11 12-9 15-10 17-11v-3-2l-4-2v-2l-4-2-8-8-7-8-11-13-10-14-10-15-14-26-11-27-8-28-5-27-2-19v-40l3-24 4-21 7-24 7-19 12-26 17-28 14-18 11-12 7-8 10-10 11-9 12-10 13-9 20-12 15-8 19-8 27-9 27-6 20-3 15-1h29l21 2 24 4 27 7 26 10 25 12 24 15 13 10 10 8 12 11 6 5 7 8 11 12 12 16 13 20 11 20 10 23 8 24 6 25 4 31 1 17v13l-2 25-3 21-6 25-8 24-11 25-11 20-7 11-14 19-11 13-5 6 16 8 19 9 17 9 23 11 106 53v-573l3-32 3-16 10-30 14-26 12-16 12-14 10-10 14-11 10-7 18-10 15-7 22-7 16-3 18-2zm-5 121-18 2-11 4-11 6-10 9-8 9-8 17-3 14v644l19 10 56 28 5 1 14-27 113-226 7-11 9-9 10-6 10-4 9-2h17l12 3 12 6 10 8 8 10 6 12 3 14v11l-2 12-8 19-144 288v1h808l15-3 16-8 10-8 9-10 7-14 3-11 1-7v-719l-3-16-5-12-8-11-4-5-12-9-13-6-13-3-11-1zm-593 194-18 2-19 5-16 6-19 10-13 9-14 12-5 4-9 11-11 14-6 11-8 15-8 25-2 7-3 28v10l3 26 5 19 6 16 8 15 6 11 9 11 12 14 14 12 11 8 10 6 21 10 28 8 29 3 26-2 15-3 20-6 11-5 19-10 13-10 13-11 12-13 10-13 10-18 7-15 7-24 2-12 1-12v-20l-3-24-8-27-8-17-10-17-11-13-7-9-11-9-14-11-18-10-12-6-26-8-23-3zm5 449-26 2-23 4-22 6-22 8-21 10-20 12-14 10-10 8-10 9-8 7-13 14-11 14-11 15-11 19-8 17-5 11-8 24-6 26-3 29-1 35v164l1 18 3 15 7 14 11 13 13 9 11 5 13 3 19 2 16 5 11 7 9 8 9 14 4 13 1 9 1 329h261l3-1 1-711 3-17 5-12 8-11 9-8 8-5 10-4 11-2h10l15 3 12 5 54 27 19 9 19 10 176 88 11 5 9 2h14l10-3 12-8 7-8 6-12 1-5v-10l-3-10-5-8-9-8-17-9-19-9-162-81-19-9-156-78-28-12-26-8-25-5-15-2-18-1z"/>
<path transform="translate(1091,384)" d="m0 0h624l26 1 11 3 12 6 11 9 9 12 6 15 1 4v21l-4 13-6 11-8 10-11 8-11 5-14 3h-657l-13-3-12-6-10-8-9-12-6-13-2-9v-18l4-14 5-10 11-13 10-7 11-5 8-2z"/>
<path transform="translate(1408,609)" d="m0 0h319l20 2 14 6 13 10 8 10 6 12 3 10v21l-4 13-8 14-4 5-11 9-13 6-13 3h-337l-15-4-11-6-12-11-7-11-5-11-2-9v-15l4-16 6-11 7-9 10-8 11-6 11-3z"/>
<path transform="translate(1409,834)" d="m0 0h317l16 1 13 4 12 7 9 8 9 13 5 13 1 5v20l-4 13-6 11-9 10-7 6-14 7-13 3h-337l-12-3-14-7-12-11-7-10-5-12-2-9v-15l4-16 6-11 9-11 13-9 9-4 8-2z"/>
</svg>
