<?xml version="1.0" encoding="UTF-8"?>
<svg version="1.1" viewBox="0 0 2048 2048" width="512" height="512" xmlns="http://www.w3.org/2000/svg">
<path transform="translate(1405,895)" d="m0 0h451l17 2 12 5 11 7 11 11 7 11 5 13 1 6 1 22v777l-1 116-3 12-8 16-9 10-10 8-13 6-15 3h-1679l-13-3-12-6-9-7-8-8-8-13-4-11-2-12 1-16 5-16 7-11 10-11 10-7 15-6 15-2h546l31 1v-387l2-13 4-12 7-11 10-11 10-7 15-6 14-2h514v-386l2-13 4-12 7-11 10-11 10-7 15-6z"/>
<path transform="translate(1018,575)" d="m0 0h13l16 4 25 12 236 118 12 8 8 7 10 14 5 14 1 5v45l-2 27-5 36-6 32-8 30-12 36-11 27-15 30-9 17-14 23-8 12-11 16-20 26-11 13-12 14-4 5h-2l-2 4-11 11-7 8-6 5-18 18-8 7-14 13-11 9-12 11-11 9-12 11-11 9-13 10-13 6-13 3h-17l-13-3-15-8-13-11-14-12-10-9-11-9-11-10-8-7-11-10-8-7-10-9-35-35-7-8-9-10-9-11-11-13-9-12-13-18-12-18-15-25-8-14-8-16-13-29-10-27-10-32-8-34-6-36-3-28-2-34v-21l3-16 4-9 6-10 9-10 13-9 258-129 15-5zm123 194-12 3-11 6-9 7-76 76-5 4-2 3h-4l-7-8-8-8-11-9-16-8-9-2h-23l-13 4-11 6-10 9-7 8-7 14-3 13v18l3 13 6 12 9 11 68 68 11 7 12 5 9 2h17l16-4 11-6 11-9 130-130 7-10 5-10 3-14v-17l-4-15-6-12-9-10-8-7-14-7-12-3z"/>
<path transform="translate(442,1023)" d="m0 0h13l16 4 25 12 236 118 12 8 8 7 10 14 5 14 1 5v45l-2 27-5 36-6 32-8 30-12 36-11 27-15 30-9 17-14 23-8 12-11 16-20 26-11 13-12 14-4 5h-2l-2 4-11 11-7 8-6 5-18 18h-2v2l-8 7-12 11-11 9-12 11-11 9-12 11-11 9-13 10-13 6-13 3h-17l-13-3-15-8-13-11-14-12-10-9-11-9-11-10-8-7-11-10-8-7-10-9-35-35-7-8-9-10-9-11-11-13-14-19-10-14-10-15-15-25-8-14-8-16-13-29-10-27-10-32-8-34-6-36-3-28-2-34v-21l3-16 4-9 6-10 9-10 13-9 258-129 15-5zm123 194-12 3-11 6-9 7-76 76-5 4-2 3h-4l-7-8-8-8-11-9-16-8-9-2h-23l-13 4-11 6-10 9-7 8-7 14-3 13v18l3 13 6 12 9 11 68 68 11 7 12 5 9 2h17l16-4 11-6 11-9 130-130 7-10 5-10 3-14v-17l-4-15-6-12-9-10-8-7-14-7-12-3z"/>
<path transform="translate(1594,127)" d="m0 0h13l16 4 25 12 236 118 12 8 8 7 10 14 5 14 1 5v45l-3 34-4 29-6 31-8 31-11 33-12 29-9 20-10 19-14 24-12 19-10 14-8 11-13 17-12 14-11 13-5 6h-2l-2 4-11 11-7 8-6 5-18 18-8 7-14 13-11 9-12 11-11 9-12 11-11 9-13 10-13 6-13 3h-17l-13-3-15-8-13-11-14-12-10-9-11-9-11-10-8-7-11-10-8-7-10-9-35-35-7-8-9-10-9-11-11-13-9-12-13-18-12-18-15-25-8-14-8-16-13-29-10-27-10-32-8-34-6-36-3-28-2-34v-21l3-16 4-9 6-10 9-10 13-9 258-129 15-5zm123 194-12 3-11 6-9 7-76 76-5 4-2 3h-4l-7-8-8-8-11-9-16-8-9-2h-23l-13 4-11 6-10 9-7 8-7 14-3 13v18l3 13 6 12 9 11 68 68 11 7 12 5 9 2h17l16-4 11-6 11-9 130-130 7-10 5-10 3-14v-16l-4-16-6-12-9-10-8-7-14-7-12-3z"/>
</svg>
