<?xml version="1.0" encoding="UTF-8"?>
<svg version="1.1" viewBox="0 0 2048 2048" width="512" height="512" xmlns="http://www.w3.org/2000/svg">
<path transform="translate(12)" d="m0 0h136l9 8 3 6v105h259l2 5-1 36-259 1-1 78h319v-223l3-7 10-9h136l9 8 3 6v105h1386l9 1 8 6 5 6v1904l-8 9-5 3h-136l-5-5-5-6-1-2-1-10v-97h-1187l-1-1v-38l2-2h1204l12 2 8 7 3 6v105h79v-1847l-1366 1-1 78h1265l10 1 6 4 6 7 1 3v442l-6 8-3 3-5 1-1273 1-1 78h1264l13 2 8 7 3 6v446l-6 8-4 3-4 1h-1274l1 6-1 73h1264l13 2 8 7 3 6v442l-4 6-6 5-3 1-1274 1-1 225-5 8-6 4h-2v2h-136l-5-5-5-6-1-2-1-10v-97l-318 1-1 105-5 8-6 4h-2v2h-137l-1-3-6-5-3-4v-2025h2l2-4zm29 40-1 23v1944h79v-1967zm480 0-1 2v1965h79v-1967zm-360 240-1 3v112l6 1 313-1v-115zm480 0-1 5v74l6 1h451l12 2 7 6 3 6 1 293h163l-5-5-5-6-6-5-6-7-32-32-4-8v-8l4-8 11-12 144-144 6-5v-2h2v-2h2v-2h2v-2h2v-2h2v-2h2l7-8 5-4v-2h2v-2h2v-2h2v-2h2v-2h2v-2h2l7-8 13-13 11-7h10l8 4 12 11 39 39h1l1-36 2-10 6-7 5-3 8-1 338-1v-79zm0 120-1 3v264h79v-267zm120 0-1 2v265h79v-267zm120 0-1 2v265h79v-267zm120 0-1 2v265h79v-267zm567 0v19h79v-19zm120 0v19h79l1-17-1-1-13-1zm120 0v19h79v-19zm-347 12-6 6v2l-4 2-2 4 13 13h2l2 4h2l2 4h2l2 4h2l2 4h2l2 4h2l2 4h2l2 4h2l1 3 8 7 4 3 8-7 4-5-2-4-21-21-2-3h-2l-2-4h-2l-2-4h-2l-2-4h-2l-2-4h-2l-1-3-6-5-4-4zm-1300 24-1 5v74l6 1 313-1v-79zm1257 19-102 102 6 7 49 49 6-4 8-8v-2l4-2 86-86-1-4-3-1v-2l-8-7-4-5-4-4h-2l-2-4-22-22h-2v-2l-5-5zm150 5v147h79v-147zm120 0v147h79v-147zm120 0v147h79v-147zm-282 57-150 150h151v-150zm-1365 39-1 3v108l6 1 313-1v-111zm1125 31-12 12 1 4 8 7 45 45 4-1 1-3 4-2 4-4v-2l2-1-54-54zm282 61v19h79v-19zm120 0v19h79v-19zm120 0v19h79v-19zm-1647 60-1 5v74l6 1 313-1v-79zm0 120-1 3v112l6 1 313-1v-115zm480 0-1 3v80l5 1h334l10 2 8 7 2 6 1 40 2 3 20-20 5-6 6-5 7-8 8-8 10-7 7-2 10 3 9 7 212 212 6 9 1 2v11l-9 12-49 49h158l-1-3-8-7-41-41-6-9-1-3v-8l4-8 221-221 8-4h7l8 3 10 9 42 42h1l1-37 2-9 6-7 5-3 9-1 217-1v-83zm0 124-1 3v264h79v-267zm120 0-1 3v264h79v-267zm120 0-1 3v264h79v-267zm807 0v267h79v-267zm121 0-1 2v265h79v-267zm-745 12-4 4v2h-2v2h-2v2h-2v2h-2v2h-2v2h-2v2l-4 2v2h-2v2h-2v2h-2v2h-2v2h-2v2h-2v2h-2v2h-2v2h-2v2h-2v2l-4 2v2l-4 2-6 6 2 5 12 12h2l2 4h2l2 4h2l2 4 8 8h2l2 4 12 12h2l2 4h2l2 4h2l2 4h2l2 4h2v2h2v2h2v2h2v2h2v2h2v2l7 6 5 6 7 6 5 6 7 6 1 2h2v2h2v2h2l2 4 28 28 8 7 2 3h2v2h2v2h2v2h2v2h2v2h2l2 4 12 12 6 5 7-6 48-48-1-4-186-186zm518 0-187 187 1 4 14 14h2v2h2v2h2v2h2v2h2v2h2v2h2v2l4 4h2v2h2l2 4 6 6h2v2h2v2l4 4 5-1 5-5v-2h2l7-8 5-4 6-7 7-6 5-6 6-5 7-8 15-15 6-5 6-7 6-5 6-7 6-5 6-7 6-5 6-7 7-6 5-6 6-5 6-7 6-5 6-7 6-5 6-7 6-5 7-8 11-11-1-4-7-6-7-8-38-38zm-1421 20-1 5v74l6 1 313-1v-79zm839 84v151h151l-6-7-144-144zm646 2-149 149h150l1-147zm-1485 34-1 3v112l6 1 313-1v-115zm0 156-1 5v74l6 1 313-1v-79zm0 120-1 3v108l6 1 313-1v-111zm480 0-1 5v74l5 1h331l13 2 7 6 3 6 1 293h283l-5-5-6-7h-2l-2-4h-2l-1-3-6-5-7-8-23-23-4-8v-7l3-7 7-9 149-149 6-5 6-7 6-5 7-8 5-4 7-8 25-25 11-7h10l8 4 12 11 39 39h1l1-37 2-9 6-7 5-3 9-1 337-1v-79zm-1 120v23h79v-22l-18-1zm120 0v23h79v-23zm120 0v23h79v-23zm688 0v267h79v-267zm121 0-1 2v265h79v-267zm120 0-1 2v265h79v-267zm-348 12-187 187 1 4 8 7 45 45 4-1 41-41v-2l4-2v-2l4-2 124-124v-2l4-2v-2l4-2 4-5-1-4h-2l-2-4-7-6-5-6h-2l-2-4-20-20h-2l-2-4-7-7zm-1300 20-1 5v74l6 1 313-1v-79zm480 32-1 3v144h79v-147zm120 0-1 3v144h79v-147zm120 0-1 3v144h79v-147zm645 52-7 8-143 143h151v-151zm-1365 36-1 3v112l6 1 313-1v-115zm479 100v15h80v-13l-2-2zm120 0v15h80v-13l-2-2zm120 0v15h80v-13l-2-2zm-719 56-1 5v74l6 1 313-1v-79z"/>
<path transform="translate(780,1007)" d="m0 0h39l2 3v156l-1 2h-40l-1-1v-159z"/>
<path transform="translate(660,1007)" d="m0 0h39l2 2v157l-1 2h-40l-1-1v-159z"/>
<path transform="translate(900,1007)" d="m0 0h39l2 3v156l-1 2h-40l-1-1v-159z"/>
<path transform="translate(1090,1016)" d="m0 0 14 12 6 7 6 5 5 6 7 6 6 7 6 5 5 6 7 6 6 7 6 5 6 7 6 5 6 7 6 5 5 5v2l4 2 5 6 2 1-1 4-26 26-4-2-110-110 1-4h2l2-4h2v-2l8-7 1-2h2l2-4 3-1 2-5z"/>
<path transform="translate(1828,1635)" d="m0 0h39l2 3v76l-1 2h-40l-1-1v-79z"/>
<path transform="translate(1588,1635)" d="m0 0h39l2 3v76l-1 2h-40l-1-1v-79z"/>
<path transform="translate(1708,1635)" d="m0 0h39l2 3v76l-1 2h-40l-1-1v-79z"/>
<path transform="translate(1379,1621)" d="m0 0 4 1 25 25 1 3-56 56-4-2v-2h-2l-4-5-6-5-7-8-7-6 1-3 8-7z"/>
<path transform="translate(0,2047)" d="m0 0 2 1z"/>
<path transform="translate(2047,2037)" d="m0 0"/>
<path transform="translate(0)" d="m0 0"/>
</svg>
