<?xml version="1.0" encoding="UTF-8"?>
<svg version="1.1" viewBox="0 0 2048 2048" width="512" height="512" xmlns="http://www.w3.org/2000/svg">
<path transform="translate(1328,319)" d="m0 0h30l38 2 38 4 37 6 28 6 30 8 28 9 20 7 27 11 26 12 22 11 24 14 20 12 23 16 16 12 14 11 14 12 10 9 8 7 29 29v2h2l7 8 11 13 12 15 9 12 16 23 11 18 10 17 15 29 11 25 11 29 10 33 8 34 5 30 3 26 1 15v56l-2 25-4 30-6 31-8 30-12 36-10 25-11 24-10 19-15 26-10 15-14 20-10 13-13 16-9 10-6 8h-2l-2 4-28 28-8 7-11 10-5 8-2 6v15l8 61 16 117 2 15v7l-3 9-6 9-7 6-7 3-5 1h-11l-11-4-24-16-17-12-24-16-10-7-22-15-33-22-11-8-15-10-16-11-13-8-9-3h-8l-43 10-31 6-27 4-29 3-32 2h-45l-46-3-37-5-27-5-27-6-34-9-5-1-2 5-10 12-9 11-15 16-7 8-4 4h-2l-2 4-8 7-9 9-11 9-15 13-12 9-18 13-23 15-15 9-21 12-32 16-31 13-28 10-29 9-37 9-32 6-39 5-23 2-21 1h-43l-30-2-35-4-24-4-24-5-34-8h-11l-10 4-15 10-23 16-18 12-47 32-24 16-10 7-19 13-17 11-9 3h-12l-9-3-8-6-6-8-3-7v-18l20-147 4-31v-8l-3-9-6-9-16-15-8-7-17-17-9-11-12-13-11-14-12-16-18-27-9-15-10-18-13-26-12-29-8-22-10-35-7-34-4-28-2-23-1-20v-22l2-34 4-31 6-31 7-27 12-36 8-20 11-24 13-25 10-17 15-23 11-15 12-16 12-14 8-10h2l2-4 36-36 8-7 12-10 14-11 19-14 13-9 17-11 22-13 24-13 33-15 28-11 20-7 26-8 36-9 27-5 26-4 29-3 38-2h25l39 2 37 4 37 6 19 4h5l7-10 10-14 10-13 11-14 9-10 7-8 9-10 11-12 10-9 12-12 11-9 15-13 32-24 26-17 22-13 18-10 34-17 39-16 38-13 37-10 39-8 33-5 30-3zm7 65-43 2-35 4-35 6-44 11-36 12-16 6-24 10-35 17-24 14-18 11-20 14-16 12-16 13-15 13-7 7-3 2v2l-4 2-8 8-7 8-8 8-9 11-8 9-13 17-12 17-14 22-9 16-12 23-11 25-9 24-9 30-8 36-4 27-2 23-1 20v18l2 31 3 26 5 27 8 32 10 30 12 29 13 27 14 24 12 19 13 18 11 14 9 11 11 12 7 8 27 27 11 9 10 9 14 11 15 11 24 16 13 8 23 13 21 11 27 12 26 10 36 12 36 9 31 6 29 4 32 3 20 1h37l23-1 31-3 34-5 29-6 32-8 14-2h14l13 2 14 4 16 8 18 12 97 66 6 4 2-1-15-111-2-20 1-17 4-17 6-14 7-11 11-13 5-4v-2l4-2 7-7 8-7 23-23 9-11 12-14 13-17 12-17 13-21 9-15 8-16 9-19 10-25 12-36 6-25 5-26 3-22 2-24v-48l-3-32-4-26-6-27-7-25-9-26-11-26-13-27-14-24-13-20-10-14-10-13-14-17-22-24-13-13-8-7-10-9-11-9-16-13-19-13-11-8-20-12-17-10-27-14-27-12-26-10-30-10-29-8-38-8-35-5-37-3zm-672 256-27 1-34 3-38 6-31 7-28 8-21 7-26 10-23 10-19 10-21 11-24 15-20 14-21 16-10 9-11 9-9 9-2 1v2l-4 2-16 17-10 11-9 11-12 15-7 10-12 18-10 16-14 26-11 24-9 23-8 26-7 28-6 36-2 23-1 18v20l2 29 3 24 7 36 10 34 7 19 11 26 12 24 16 27 13 19 9 12 11 14 13 15 12 13 19 19 8 7 14 14 10 15 6 14 4 15 1 8v16l-3 26-11 81-1 8 5-2 12-8 16-11 25-17 31-21 24-16 14-7 13-4 12-2h20l20 4 24 6 32 6 30 4 22 2 19 1h39l31-2 34-4 33-6 33-8 35-11 26-10 25-11 16-8 23-12 18-11 21-14 19-14 11-9 13-11 13-12 8-7 7-7v-2l3-1 7-8 11-12 4-5-1-3-24-11-29-15-27-16-27-18-18-13-16-13-10-8-12-11-8-7-12-11-15-15-7-8-9-10-9-11-10-12-14-19-20-30-15-26-14-27-13-30-10-28-8-26-7-29-5-27-4-32-2-32v-25l2-36 4-32 5-27 6-25 7-24 8-24 12-29 6-13v-2l-13-3-27-4-28-3-44-2z"/>
<path transform="translate(1595,799)" d="m0 0h10l16 2 18 6 11 6 11 8 10 9 8 10 7 11 6 14 4 18v26l-4 17-7 16-7 11-11 13-14 11-16 8-15 5-12 2h-22l-18-4-12-5-11-6-10-8-13-13-7-10-7-14-5-16-2-15v-9l2-16 5-16 8-16 10-13 10-10 13-9 15-7 13-4zm3 65-9 2-6 3-9 8-4 8-1 5v13l4 9 5 7 9 6 6 2h13l12-5 8-8 4-8 1-3v-14l-5-12-7-7-11-5z"/>
<path transform="translate(1339,799)" d="m0 0h10l16 2 18 6 11 6 11 8 10 9 8 10 9 15 5 14 3 14v26l-4 17-5 12-6 11-8 10-8 9-15 11-15 7-13 4-12 2h-22l-18-4-12-5-11-6-10-8-13-13-7-10-7-14-5-16-2-15v-9l2-16 5-16 8-16 10-13 10-10 13-9 15-7 13-4zm3 65-9 2-6 3-9 8-4 8-1 5v13l4 9 5 7 9 6 6 2h13l12-5 8-8 4-8 1-3v-14l-5-12-7-7-11-5z"/>
<path transform="translate(1083,799)" d="m0 0h10l16 2 18 6 11 6 11 8 10 9 8 10 9 15 5 14 3 14v26l-4 17-5 12-6 11-8 10-8 9-15 11-15 7-13 4-12 2h-22l-18-4-12-5-11-6-10-8-13-13-9-14-5-10-5-16-2-14v-10l2-16 5-16 8-16 10-13 10-10 13-9 17-8 17-4zm3 65-9 2-6 3-9 8-4 8-1 5v13l4 9 5 7 9 6 6 2h13l12-5 8-8 4-8 1-3v-14l-5-12-7-7-11-5z"/>
<path transform="translate(447,1279)" d="m0 0h284l16 2 10 6 7 8 4 9v16l-6 12-9 8-13 4h-298l-11-4-9-8-6-12v-16l4-10 6-7 14-7z"/>
<path transform="translate(447,1087)" d="m0 0h220l13 1 12 6 8 9 4 9v16l-6 12-9 8-13 4h-234l-11-4-9-8-6-12v-16l4-10 6-7 14-7z"/>
<path transform="translate(447,895)" d="m0 0h189l12 1 12 6 8 9 4 9v16l-6 12-9 8-13 4h-202l-11-4-9-8-6-12-1-7 2-12 4-8 3-4h2v-2l14-7z"/>
</svg>
