<?xml version="1.0" encoding="UTF-8"?>
<svg version="1.1" viewBox="0 0 2048 2048" width="512" height="512" xmlns="http://www.w3.org/2000/svg">
<path transform="translate(1014,138)" d="m0 0h20l24 2 25 4 20 5 21 7 23 10 20 11 14 9 19 14 10 9 8 7 16 16 9 11 10 13 10 15 10 17 11 23 9 25 7 23 527 1 18 2 18 5 19 9 17 12 14 13 10 13 9 15 6 14 5 17 2 15v1020l-3 19-5 16-8 17-11 16-11 12-10 9-15 10-15 7-19 6-12 2-11 1-561 1-1 154h77l20 3 18 6 16 8 13 9 14 12 9 11 8 11 8 15 7 21 3 17v19l-6 9-6 3-8 1h-827l-8-2-7-6-3-9 1-18 4-19 7-18 7-13 10-14 9-10 10-9 15-10 15-8 15-5 14-3 9-1h77v-155h-565l-20-3-21-7-17-9-12-9-10-9-7-7-12-17-8-16-6-17-3-16-1-11v-1007l2-19 4-15 6-15 8-15 9-12 12-13 15-12 16-9 14-6 16-4 17-2 527-1 8-28 11-27 10-20 11-18 10-14 11-14 12-13 17-17 14-11 13-10 21-13 21-11 28-11 25-7 28-5zm2 35-25 2-26 5-26 8-21 9-19 10-15 10-13 10-11 9-21 21-9 11-13 18-12 21-10 21-11 33-5 24-2 19-1 17v114l2 31 3 24 5 26 6 23 10 28 11 24 11 19 8 12 9 12 12 14 18 18 14 11 13 9 17 10 21 10 27 9 22 5 26 3h26l26-3 26-6 22-8 25-12 19-12 12-9 13-11 13-12 7-8 13-16 10-15 12-21 9-19 9-25 7-24 6-29 3-23 2-26v-135l-2-21-6-29-10-30-9-20-10-18-11-16-11-14-12-13-12-12-11-9-13-10-21-13-16-8-16-7-21-7-22-5-21-3-18-1zm-792 222-16 2-15 5-15 8-11 9-8 8-9 13-7 15-4 13-1 6-1 205v486l1 166h1771l1-1v-852l-4-20-7-16-8-12-11-12-12-9-16-8-13-4-13-2h-520l-1 2 1 32v90l-1 35-3 32-6 34-7 28-8 24-9 21-8 17-11 19-8 12-9 12-9 11-11 12-14 14-14 11-12 9-16 10-18 10-11 6-1 4-1 105-4 20-6 15-8 14-8 10-6 7-13 10-14 8-15 6-12 3-8 1h-24l-15-3-16-6-13-7-13-10-10-10-11-16-8-17-4-14-2-14-1-105-19-10-19-11-14-10-14-11-13-12-14-14-9-11-13-17-12-19-6-10-11-23-11-28-8-27-6-27-4-27-2-20-1-18v-147zm729 454v86l2 16 6 16 8 12 11 11 11 7 11 5 13 3h18l16-4 12-6 13-10 9-11 8-16 3-11 1-7v-91l-8 1-28 5-18 2h-40l-28-4-17-4zm-815 517-1 2 1 128 3 14 7 17 8 12 11 12 10 8 14 8 14 5 9 2 11 1h1601l18-3 13-5 14-8 10-8 8-8 7-10 8-15 4-13 2-13v-126zm682 244-1 146 1 9h408v-155zm-110 190-17 3-15 6-14 9-10 9-7 7-9 14-5 10-5 14v2l194 1h348l249-1-1-7-5-13-7-13-7-9-7-8-12-9-10-6-15-6-18-3z" fill="#151415"/>
<path transform="translate(1224,786)" d="m0 0h8l28 6 30 8 36 12 22 9 23 11 20 12 12 9 11 9 12 11 9 11 9 14 7 15 5 20 20 127 14 90 14 88 1 7v11l-3 6-7 6-3 1h-937l-6-4-5-6-1-4 1-15 19-122 15-97 13-84 4-18 6-15 6-11 8-11 11-12 9-9 17-13 14-9 18-10 21-10 26-10 24-8 34-9 13-3h9l8 4 5 7 1 9-3 7-4 5-11 4-32 8-29 9-21 8-18 8-16 8-18 11-14 11-10 9-10 13-8 16-3 11-8 49-10 66-13 83-14 91-2 8h886l-3-15-14-90-21-134-9-56-3-13-8-16-10-13-9-9-16-12-15-9-23-12-25-10-30-10-30-8-30-7-7-6-3-7 1-9 4-7z" fill="#151415"/>
<path transform="translate(892,1454)" d="m0 0h263l8 4 4 5 2 5-1 10-6 8-8 3h-262l-6-3-5-6-2-5v-8l4-7 6-5z" fill="#151415"/>
</svg>
