<?xml version="1.0" encoding="UTF-8"?>
<svg version="1.1" viewBox="0 0 2048 2048" width="512" height="512" xmlns="http://www.w3.org/2000/svg">
<path transform="translate(292,233)" d="m0 0h25l16 4 16 8 13 10 11 12 10 13 12 15 10 13 13 16 13 17 13 16 22 28 12 15 11 14 12 15 7 11 3 9v7l-3 10-6 9-7 6-11 4h-14l-12-6-7-7-11-14-13-16-10-13-12-15-22-28-12-15-13-17-11-13-7-9-2-3v889h2l2-4 12-14 9-10 8-10 13-15 9-10 8-10 10-11 9-11 26-30 9-11 10-11 9-11 10-11 9-11 26-30 9-11 10-11 9-11 9-10 18-22h2l2-4 13-15 9-11 2-2-2-10-2-11v-19l3-18 4-12 8-16 7-11 9-10 10-10 10-7 17-9 15-5 10-2 11-1h12l16 2 15 4 19 9 14 10 11 10 13 17 8 16 5 15 3 17v15l11 3 43 14 50 16 35 11 31 10 30 10 3-1 9-13h2l2-4 8-8 12-9 14-8 17-6 14-3h28l15 3 15 5 15 8 4-2 8-8 8-7 24-22 8-7 13-12 8-7 15-14 8-7 12-11 10-9 13-12 8-7 13-12 8-7 13-12 12-11 30-27 13-12 8-7 10-9-1-5-5-16-2-10-1-17 2-17 5-19 8-16 7-11 7-9h2l2-4 13-11 13-8 13-6 14-4 11-2h27l16 3 18 7 14 8 10 8 9 8 11 14 9 16 6 16 3 15 1 18-2 18-5 17-8 17-8 12-12 13-8 7-14 9-13 6-16 5-10 2-16 1-19-2-15-4-16-7-6-3-8 7-15 14-8 7-12 11-10 9-13 12-8 7-24 22-8 7-13 12-8 7-13 12-20 18-12 11-8 7-15 14-8 7-4 2v2l-8 7-10 9-13 12-8 7 7 28 1 18-2 18-4 15-10 21-8 11-11 12-13 11-18 10-17 6-15 3h-27l-18-4-15-6-14-8-11-9-12-12-10-14-9-19-5-19-2-12-33-11-91-29-33-11-47-15-5-1-2 4-7 8h-2v2l-13 10-15 9-16 6-20 4h-25l-18-4-15-6-11-6-8-6-5 2-9 11-8 10h-2l-2 4-12 14-8 10h-2l-2 4-9 10-9 11-9 10-9 11-9 10-9 11-9 10-9 11-10 11-9 11-26 30-12 14-13 15-11 13-9 10-9 11-13 15-36 42-8 10h-2l-2 4-12 14-9 10-1 2-1 21v78l38-2h45l30 2 18 3 16 5 16 9 10 10 8 14 3 13 1 14 1 89v98h122l-2-369v-36l1-14 4-16 8-16 8-11 2-3h2l2-4 11-10 15-10 17-8 19-6 18-3h37l19 3 19 6 21 10 14 10 12 11 10 13 8 15 4 13 2 16 2 371v38l121-1-1-140-1-224 2-18 5-16 8-15 9-11 12-12 14-10 16-8 14-5 16-4 14-2h31l20 3 20 6 21 10 14 10 10 9 9 10 9 15 5 13 2 8 1 9 1 63 1 208v103h122v-550l4-20 7-16 11-16 12-12 14-10 19-10 18-6 22-4h37l17 3 17 5 16 7 16 10 15 13 11 14 9 17 4 14 1 6 1 71 1 294v190l34-1 207-1-13-11-13-10-16-13-28-22-15-12-28-22-16-13-13-10-8-9-4-8-1-12 4-13 5-7 9-6 8-3h14l10 4 16 12 13 11 13 10 14 11 15 12 42 33 15 12 14 11 15 12 17 13 9 8 9 12 7 14 4 14 1 6v18l-3 16-5 12-9 15-7 8-8 7-16 13-12 9-15 12-28 22-16 13-13 10-28 22-15 12-14 11-13 10-8 4-7 2-11-1-10-4-5-4-6-8-4-10v-12l4-11 6-7 11-9 15-12 17-13 13-11 13-10 14-11 16-13 14-11 16-13 13-10 4-4-4 1h-1547v154l-1 13-6 12-7 7-8 4-4 1h-15l-12-6-8-9-4-10-1-117v-40l-1-9h-49l-131-1-11-4-9-8-6-12v-16l4-10 6-7 8-5 5-2 9-1h175v-1341l-1-1-9 12-8 10-11 14-13 16-10 13-12 15-11 14-13 16-9 12-13 16-7 8-5 4-9 4-5 1h-9l-11-4-8-7-4-5-4-9v-13l4-11 7-9 10-13 10-12 10-13 13-16 11-14 8-10 11-14 13-16 13-17 11-13 10-13 13-16 9-9 15-10 15-6zm1218 368-11 4-10 7-7 8-6 13-1 5v15l4 12 6 9 8 8 12 6 6 2h16l11-3 11-7 8-9 5-10 2-7v-16l-3-10-6-11-7-7-10-6-11-3zm-808 234-10 2-10 5-10 9-7 12-2 7-1 13 2 10 6 12 9 10 9 6 9 3 5 1h12l12-4 10-6 8-8 6-12 2-8v-14l-4-13-7-10-9-8-11-5-8-2zm406 127-12 3-10 6-9 9-6 12-2 8v14l4 13 7 10 9 8 11 5 15 2 14-3 10-5 10-9 6-10 3-10v-16l-3-10-6-10-4-5-10-7-10-4-6-1zm400 132-16 3-12 5-11 8-7 8-3 8v547h121v-235l-1-282-1-32-5-9-5-5-8-6-10-5-13-4-7-1zm-748 137-16 3-13 5-12 8-7 8-3 7v186l1 218 1 7h121v-151l-1-182-1-78-5-10-10-9-14-7-15-4-7-1zm375 40-13 2-15 5-10 6-8 7-5 8-1 4v158l1 212h122v-123l-1-218-1-30-5-10-7-7-14-8-13-4-12-2zm-757 210-26 1-12 1-3 1-1 24v165h122v-74l-1-109-1-6-14-2-35-1z"/>
<path transform="translate(1062,119)" d="m0 0h49l24 3 24 5 26 8 24 10 23 12 18 12 16 12 13 11 14 13 7 8 10 11 12 16 13 20 9 16 11 25 7 20 7 27 4 26 2 27-1 29-4 30-6 25-9 27-7 16-10 20-14 22-13 18-13 16-11 14-9 11-11 14-13 16-8 10-11 14-13 16-8 10-11 14-13 16-8 10-11 14-13 16-7 9h-2l-2 4-13 10-15 8-17 5-7 1h-19l-18-4-17-8-9-7-10-9-9-11-12-15-11-14-9-11-12-15-11-14-9-11-12-15-11-14-9-11-12-15-11-14-9-11-12-15-11-14-13-18-9-14-9-16-8-16-10-25-7-24-5-26-2-17-1-17v-20l2-23 4-24 8-30 8-21 8-18 13-23 9-13 8-11 13-16 3-4h2l2-4 13-13 8-7 15-12 19-13 15-9 17-9 27-11 23-7 25-5zm2 65-25 4-24 7-20 8-21 11-19 13-10 8-13 12-12 12-9 11-11 15-12 20-10 22-8 24-6 30-1 14v27l3 24 6 25 6 17 9 20 11 19 10 14 10 13 13 16 11 14 13 16 11 14 13 16 11 14 13 16 11 14 13 16 11 14 13 16 11 14 8 10 7 5 10 2 8-2 6-4 9-10 11-14 13-16 11-14 9-11 11-14 13-16 8-10 14-18 10-12 7-9 12-15 11-14 11-13 12-16 12-17 12-21 9-21 5-15 5-22 3-22v-37l-4-28-7-25-8-20-8-16-8-14-10-14-11-13-5-6h-2l-2-4-12-11-17-13-14-9-16-9-24-10-20-6-20-4-17-2z"/>
<path transform="translate(1073,273)" d="m0 0h26l18 3 16 5 18 8 15 10 13 11 7 7v2h2l11 15 9 16 7 19 4 17 1 9v23l-2 14-4 15-4 11-8 16-7 11-9 11-12 12-12 9-15 9-17 7-18 5-14 2h-24l-19-3-21-7-19-10-11-8-10-9-5-5-10-11-9-14-8-16-6-18-3-16-1-20 2-18 5-21 7-16 9-16 11-14 2-3h2l2-4h2v-2l11-9 10-7 14-8 15-6 16-4zm11 65-15 2-13 5-10 6-10 9-8 10-7 15-3 13v18l4 16 8 15 11 12 10 7 10 5 15 4h20l15-4 12-6 9-7 5-4 8-11 6-12 3-11 1-7v-11l-3-16-6-14-8-11-8-8-13-8-13-5-14-2z"/>
</svg>
