<?xml version="1.0" encoding="UTF-8"?>
<svg version="1.1" fill="#ddd" viewBox="0 0 2048 2048" width="512" height="512" xmlns="http://www.w3.org/2000/svg">
<path transform="translate(232)" d="m0 0h523v1l29 6 21 6 24 10 21 11 21 14 14 11 13 12 14 14 11 14 11 15 14 24 8 17 9 24 6 23 4 24 1 12 1 28 1 65v313l-1 64-1 28-2 19-5 25-4 15-7 20-10 23-9 15-10 16-12 15-14 16-8 7-13 12-17 12-21 13-25 12-33 11-24 5-23 3-16 1-45 1-200 1-61 1h-94l-40-2-42-4-30-5-23-5-29-9-20-8-17-8-18-11-16-12-12-11-14-14-11-14-10-15-14-27-9-24-7-25-4-19-4-26-2-14h-1v-478l2-10 5-33 7-29 8-23 8-18 10-18 10-14 10-13 27-27 14-11 14-10 15-9 21-11 24-9 21-6 25-5z"/>
<path transform="translate(1300)" d="m0 0h528v1l28 6 20 6 24 10 20 11 18 12 14 11 10 9 8 7 8 8v2h2l18 22 10 15 9 15 8 16 7 16 6 18 6 25 2 14 2-1v504h-2l-4 31-6 29-7 24-7 18-10 21-12 19-8 10-11 13-20 20-14 11-12 9-19 11-21 10-19 7-27 7-26 5-23 3-42 3h-73l-51-1h-223l-71-1-31-1-18-2-25-5-23-7-24-10-21-11-15-10-16-12-11-10-8-7-7-7v-2h-2l-9-11-8-10-11-16-9-15-12-25-7-19-6-23-4-24-2-27-2-156v-198l2-119 2-26 5-26 6-21 8-21 9-19 14-23 9-12 7-9 11-12 4-5h2l1-3 8-7 13-11 14-10 21-13 16-8 16-7 18-6 19-5 23-4z"/>
<path transform="translate(313,1069)" d="m0 0h31l62 1h287l36 2 31 4 25 5 24 7 21 8 23 11 20 13 13 10 12 11 11 11 11 14 9 13 12 21 9 20 7 20 7 24 6 29 4 27 4 47 1 23v75l-1 35-1 301-2 21-5 25-7 24-9 22-8 16-9 16-11 16-10 13-12 13-4 5-8 7-12 11-13 10-17 11-16 9-19 9-19 7-22 6-27 5-3 1h-491l-25-4-24-4-25-6-24-8-20-9-18-10-17-12-11-10-8-7-15-15-7-8-12-15-13-21-12-25-10-30-6-26-4-24v-7l-2-1v-494l2-9 3-22 5-22 5-17 9-22 10-20 9-14 10-14 14-17 20-20 14-11 15-11 19-11 23-11 16-6 23-6 32-5 31-3z"/>
<path transform="translate(1556,1071)" d="m0 0 34 1 34 3 32 5 27 6 25 7 32 11 30 13 24 12 27 16 12 8 14 10 13 10 11 9 11 10 8 7 28 28 7 8 9 10 9 11 14 18 20 30 10 17 10 19 13 27 11 29 8 25 7 28 6 32 4 34h2v73h-2l-4 35-7 38-7 28-9 28-10 27-9 20-12 25-13 23-15 24-8 11-10 14-13 16-12 14-7 7-1 2h-2l-2 4-16 16-8 7-10 9-11 9-13 10-14 10-17 11-22 13-27 14-25 11-28 10-31 9-32 7-40 6-15 2h-83l-3-2-34-5-31-6-30-8-29-10-24-10-29-14-23-13-27-18-16-12-16-13-8-7-10-9-15-14-1-3-3-1-7-8-7-7-9-11-11-13-14-19-14-21-13-21-17-32-13-29-11-30-10-33-7-30-6-37-3-30-1-22v-17l2-36 4-31 6-31 7-26 11-33 12-29 13-26 12-21 13-20 10-14 13-17 6-8h2l2-4 9-10 1-2h2l2-4 36-36h2v-2l11-9 9-8 13-10 20-14 17-11 21-12 28-14 29-12 36-12 27-7 36-7 34-4z"/>
<path transform="translate(244,2047)" d="m0 0h5v1h-5z"/>
</svg>
