<?xml version="1.0" encoding="UTF-8"?>
<svg version="1.1" viewBox="0 0 2048 2048" width="512" height="512" xmlns="http://www.w3.org/2000/svg">
<path transform="translate(1016,31)" d="m0 0h13l23 2 23 5 21 7 25 12 11 7 14 10 10 9 8 7 12 13 14 19 10 18 8 17 7 21 5 21v6h624l21 2 19 4 20 7 13 6 13 7 16 11 14 12 12 12 13 17 8 13 8 16 5 12 6 20 3 16 1 11v1045l-3 21-5 19-6 16-8 16-8 13-8 11-12 14-8 8-11 9-13 9-14 8-14 7-21 7-24 5-30 2h-473v169h190l23 1 24 4 24 8 21 10 12 8 14 11 13 13 9 12 9 15 7 17 4 20 1 22v83l-1 18-6 12-7 7-10 4-6 1h-1313l-11-4-10-9-4-8-2-8v-111l2-15 4-15 7-16 6-10 10-14 6-7h2v-2l8-7 16-12 17-10 19-8 17-5 16-3 7-1 18-1h195v-168l-475-1-28-2-20-4-16-5-21-9-14-8-15-11-10-9-4-3v-2l-4-2-7-8-9-11-10-15-8-15-8-20-5-19-3-20-1-15v-1019l2-26 5-22 6-18 10-21 9-14 13-17 18-18 13-10 16-10 16-8 15-6 18-5 18-3 12-1h622l2-13 6-23 8-20 8-16 10-16 11-14 9-11 8-7 11-10 15-11 17-10 19-9 25-8 20-4zm2 65-19 2-17 4-16 6-13 7-13 9-13 12-10 10-4 6-9 14-8 17-5 17-3 16v31l5 23 6 16 9 17 8 11 9 10 1 2h2v2l11 9 11 8 14 8 15 6 21 5 20 2 19-1 23-5 13-5 21-11 13-10 12-11 11-13 9-15 7-15 5-16 3-15 1-12v-14l-3-21-6-20-8-17-9-14-8-10-13-13-14-10-14-8-14-6-17-5-13-2zm-815 174-16 2-16 5-12 5-16 10-13 12-8 8-10 15-8 16-5 16-2 13-1 15v1015l2 20 4 15 6 15 7 12 10 13 12 12 14 10 16 8 18 6 12 2 16 1h1598l40-1 15-3 15-5 17-9 12-9 10-9 11-13 9-15 7-19 3-14 1-7v-1038l-3-17-6-18-9-17-9-12-14-14-13-9-15-8-18-6-9-2-11-1h-626l-7 24-8 21-6 12v1l211 1h404l38 1 10 3 12 7 5 4 1 2h2l2 4 6 11 3 9 1 7v926l-2 8-5 9-8 7-8 3-7 1h-1679l-10-3-8-6-5-6-4-10v-932l2-9 7-14 9-10 10-6 10-4 3-1 19-1h454l177-1-2-6-9-20-8-26-1-6zm17 123v874h1608v-873l-1-1h-664l3 1v2l22 10 20 11 24 16 12 9 14 11 16 15 7 6 9-1 22-4 23-3 23-2 21-1h20l9 2 9 6 6 7 4 10v438l-4 10-6 8-9 5-12 2-79 3-38 3-35 4-36 6-36 8-25 7-27 9-24 10-17 8-18 10-19 12-8 4-12 2-9-2-11-6-19-12-27-14-26-11-36-12-26-7-40-8-33-5-38-4-29-2-81-3-10-3-8-6-6-9-2-6-1-12v-421l2-10 4-8 5-5 5-4 6-3 5-1h19l33 2 27 3 37 6 8-7 7-7 11-9 16-13 24-16 15-9 23-12 15-7v-1zm784 38-22 2-23 4-26 7-25 9-29 14-23 14-11 8-7 5 2 3 30 13 25 12 23 13 22 14 17 12 17 13 14 12 10 9 8 8h2l2 4 12 12 4-1 12-13v-2h2l20-20 11-9 16-13 19-13 15-10 26-15 30-15 28-11 2-2-10-8-18-12-16-9-16-8-21-9-24-8-27-6-21-3-13-1zm-319 97-1 2v357l2 1 44 2 50 4 40 5 35 6 36 8 29 8 24 8 28 11 17 8h2v-264l-6-9-11-13-7-8-14-14-8-7-11-9-17-13-24-16-19-11-23-12-17-8-23-9-30-10-32-8-34-6zm673 0-35 4-29 5-32 8-36 12-24 10-19 9-20 11-19 12-17 12-10 8-15 13-13 12-2 4h-2l-7 8-10 12-10 14-1 2-1 21v243l9-3 20-9 33-12 35-10 40-9 42-7 43-5 39-3 45-2 1-1v-359zm-603 1053v170h536l2-1v-169zm-264 234-18 2-14 4-13 5-14 9-12 10-8 11-5 10-3 14v71l1236 1 4-1-1-77-4-12-5-9-9-11-10-8-14-8-15-6-18-4-10-1z"/>
<path transform="translate(852,1082)" d="m0 0h788l9 2 9 6 6 7 4 9 1 10-2 10-7 11-8 6-8 3-8 1h-782l-10-3-8-6-5-6-4-8-1-3v-13l4-10 6-8 10-6z"/>
<path transform="translate(405,996)" d="m0 0h13l10 4 20 11 27 16 25 14 17 10 21 12 26 15 13 8 10 9 5 9 1 4v13l-4 10-9 10-22 13-28 16-26 15-24 14-23 13-24 14-10 5-9 2h-7l-10-3-9-7-6-9-3-10v-180l3-9 4-7 7-7 8-4zm39 89v59l12-6 39-23-4-4-23-13-22-13z"/>
<path transform="translate(640,1019)" d="m0 0h8l13 4 9 8 5 9 2 7v133l-2 9-6 10-9 7-9 3-8 1-10-2-10-6-6-7-4-8-1-4v-137l4-11 9-10 10-5z"/>
<path transform="translate(761,1019)" d="m0 0 12 1 9 4 8 7 5 9 2 8v132l-2 9-5 8-4 5-8 5-7 2h-15l-10-5-7-6-5-9-2-6v-137l4-11 9-10 10-5z"/>
</svg>
