<?xml version="1.0" encoding="UTF-8"?>
<svg version="1.1" viewBox="0 0 2048 2048" width="512" height="512" xmlns="http://www.w3.org/2000/svg">
<path transform="translate(306,63)" d="m0 0h1142l12 1 9 4 7 5 6 9 3 10v115h262l11 4 9 8 6 12 1 6v186l24-1 131 1 10 4 9 8 6 12 1 23-1 1065-4 9-6 8-7 5-11 3h-783v114l-1 22 16 1 49 7 33 6 37 9 30 9 27 10 24 11 14 8 16 11 13 11 7 7 10 14 6 12 4 15v20l-4 15-8 16-9 11-2 3h-2l-2 4-12 10-10 7-15 9-16 8-23 10-36 12-26 7-43 9-45 7-46 5-44 3-23 1h-78l-42-2-54-5-49-7-36-7-29-7-25-7-31-11-29-13-19-11-12-9-10-9-10-10-9-13-6-13-3-12v-21l4-16 8-15 8-10 12-12h2v-2l18-13 22-12 17-8 24-9 25-8 26-7 38-8 43-7 34-4h4v-136h-785l-9-3-8-6-5-6-4-9-1-6v-1079l4-12 9-10 8-5 3-1 37-1h119l1-330 3-10 6-8 7-6 9-4zm33 65v836l2 14 5 13 6 11 11 13 11 8 16 8 13 3 7 1h1049l-2-4-10-15-9-16-8-20-5-17-3-17-1-11-1-807zm1146 144v659l2 15 4 14 5 12 6 11 8 11 9 10 12 10 15 9 11 5 17 5 15 2h16l18-3 18-6 17-9 13-10 13-13 9-13 8-16 6-21 1-7 1-45v-620zm-1325 215-2 1v824h1731v-825h-115l-1 434-2 28-5 23-5 15-7 16-12 20-13 17-15 15-10 8-15 10-10 6-18 8-15 5-18 4-13 2-15 1h-1188l-21-2-17-4-16-6-19-10-13-10-10-9-11-12-10-15-10-19-6-19-3-16-1-10-1-86v-393l-1-1zm-2 890v115l1 4h1242l488-1v-118zm813 183v176l3 10 6 11 9 10 11 7 10 4 4 1h19l13-4 10-6 10-9 8-14 3-13v-173zm-61 200-52 7-33 6-34 8-30 9-19 7-18 8-17 9-16 12v2h-2l-4 6v6l4 6 8 8 16 10 23 11 28 10 26 8 40 9 27 5 36 5 40 4 34 2 22 1h76l53-3 40-4 41-6 36-7 31-8 25-8 22-8 21-10 16-10 10-9 3-6-1-7-6-8-12-9-16-9-17-8-21-8-26-8-32-8-31-6-39-6-19-2h-7l-5 13-8 16-10 13-9 10-13 10-14 8-11 5-21 6-7 1h-28l-17-3-19-7-16-9-11-9-9-8-11-14-9-16-7-17z"/>
<path transform="translate(725,749)" d="m0 0h511l10 2 9 5 7 8 4 8 1 3v13l-4 10-7 8-6 5-11 3h-517l-10-4-8-7-6-9-2-7v-10l4-11 7-9 10-6z"/>
<path transform="translate(729,510)" d="m0 0h506l11 2 10 6 6 7 4 8 1 3v13l-4 10-9 10-7 4-7 2h-518l-10-4-8-7-5-7-3-9v-10l3-10 6-8 8-6 7-3z"/>
<path transform="translate(728,271)" d="m0 0h503l15 2 11 7 6 8 4 10v12l-4 10-6 8-10 6-9 2h-515l-9-3-6-4-8-9-4-11v-10l4-11 6-8 10-6 5-2z"/>
<path transform="translate(530,685)" d="m0 0h26l18 4 15 7 12 7 13 12 10 12 10 19 4 13 2 11v24l-4 18-8 18-9 13-4 5h-2l-2 4-14 11-15 8-15 5-17 3h-15l-17-3-16-6-11-6-13-10-8-8-9-12-8-15-5-16-2-12v-17l3-17 4-12 7-14 12-16 11-10 15-10 15-6zm6 65-10 4-8 7-6 12-1 5v8l3 10 6 8 7 6 7 3 13 1 10-3 9-6 6-8 3-9v-13l-4-10-7-8-8-5-6-2z"/>
<path transform="translate(532,207)" d="m0 0h23l18 4 12 5 14 8 13 11 9 10 8 13 6 13 4 15 1 6v24l-4 18-8 18-9 13-10 11-12 9-17 9-16 5-15 2h-14l-17-3-14-5-13-7-12-9-11-11-10-15-6-12-5-18-1-7v-18l3-17 4-12 9-17 8-11h2l2-4 9-8 14-9 13-6 15-4zm4 65-10 4-7 6-6 10-2 9v7l3 10 6 8 7 6 7 3 12 1 9-2 10-6 7-9 3-8v-14l-5-12-4-5-10-6-6-2z"/>
<path transform="translate(532,446)" d="m0 0h23l15 3 16 6 16 10 13 12 10 13 6 11 6 15 3 15v24l-4 18-8 18-9 13-3 4h-2l-2 4-12 10-14 8-15 6-12 3-10 1h-14l-17-3-16-6-14-8-11-9-7-7-11-15-8-17-4-15-1-7v-18l3-17 7-19 10-16 11-12 13-10 17-9 17-5zm4 65-10 4-6 5-6 9-3 10v9l4 10 4 6 8 7 7 3 5 1 13-1 10-5 7-6 5-10 1-3v-15l-6-12-7-7-8-4-3-1z"/>
<path transform="translate(425,1401)" d="m0 0h17l12 6 7 8 5 12v12l-3 8-6 9-8 6-8 3-10 1-9-2-10-6-6-7-4-8-1-4v-12l5-12 6-7 10-6z"/>
<path transform="translate(253,1401)" d="m0 0h14l10 4 8 7 5 7 3 11v7l-3 10-6 9-10 7-13 3-12-2-8-4-7-7-5-9-1-4v-14l4-10 7-8 8-5z"/>
<path transform="translate(601,1401)" d="m0 0h11l11 4 8 6 7 11 1 4v14l-4 10-9 10-8 4-12 2-11-2-8-5-7-7-5-11-1-10 3-12 6-8 7-6z"/>
</svg>
