<?xml version="1.0" encoding="UTF-8"?>
<svg version="1.1" fill="#ddd" viewBox="0 0 2048 2048" width="512" height="512" xmlns="http://www.w3.org/2000/svg">
<path transform="translate(0,483)" d="m0 0h1318l3 2v185l-1 123-19 10-504 252-17 9-23 11-17 9-23 11-17 9-23 11-416 208-3 1-256 1-2-1zm241 121-1 15v104l117 1 2-1v-119zm360 0-1 15v104l117 1 2-1v-119zm360 0-1 15v104l117 1 2-1v-119zm-720 240-1 19v100l117 1 2-1v-119zm360 0-1 19v100l117 1 2-1v-119z"/>
<path transform="translate(1379,896)" d="m0 0 10 4 32 16 19 9 66 33 23 11 50 25 19 9 62 31 23 11 66 33 23 11 66 33 23 11 66 33 23 11 58 29 23 11 17 9v619h-2l-5 23-7 23-9 21-10 19-12 18-11 14-12 13-12 12-14 11-17 12-21 12-23 10-21 7-26 6-10 2h-28l-1-3v-116l2-2 18-2 17-4 15-6 16-9 10-8 10-9 12-15 8-14 7-19 3-14 1-8v-465l-27 11-102 40-55 22-31 12-157 62-36 14-55 22-39 15-40 16-6 1-24-10-720-288 1-3 740-370z"/>
<path transform="translate(239)" d="m0 0h121l1 3-1 120h239v-123h121l1 3-1 120h239v-123h121l1 3-1 120h238l3 2v237l-1 2-1318 1-2-1v-241h239z"/>
<path transform="translate(960,1530)" d="m0 0 5 1 41 16 350 140 23 9 10-3 87-35 105-42 168-67 38-15 9-4h4l1 126-2 4-215 86-200 80-7 1-8-4-100-40-210-84-87-35-12-5-1-2v-126z"/>
</svg>
