<?xml version="1.0" encoding="UTF-8"?>
<svg version="1.1" viewBox="0 0 2048 2048" width="512" height="512" xmlns="http://www.w3.org/2000/svg">
<path transform="translate(654,19)" d="m0 0 32 2 25 4 29 8 21 8 25 12 24 15 12 9 11 9 13 12 14 14 9 11 12 16 12 19 12 23 10 25 7 24 4 19 3 25 1 15v16l-3 32-5 25-7 24-8 20-7 16-13 22-9 13-12 16-14 15-14 14h-2v2l-14 11-15 11-20 12-16 8-18 8-24 8-21 5-25 4-13 1h-35l-20-2-22-4-26-7-25-10-23-11-21-13-17-13-21-18v-2l-4-2-7-8-10-11-14-19-12-19-12-23-10-25-8-27-319-1-14-1-14-4-11-6-11-10-7-10-7-16v-28l7-16 8-11 7-7 14-8 13-4 9-1h326l1-7 6-20 8-21 11-23 12-20 8-11 10-13 9-10 7-8 10-10 8-7 18-14 15-10 19-11 21-10 25-9 29-7 19-3 10-1zm-2 122-24 2-17 4-18 6-21 11-14 10-10 9-7 6-11 14-6 8-10 18-5 11-6 19-3 16-1 16v13l2 21 7 25 7 16 10 17 11 14 10 11 11 9 12 9 12 7 15 7 23 7 23 3 14 1 26-3 19-5 18-7 20-11 10-8 13-11 11-12 9-12 9-15 7-16 7-24 3-27-1-18-2-17-7-24-11-23-7-11-13-16-6-7-14-11-11-8-20-11-24-8-15-3z"/>
<path transform="translate(1455,747)" d="m0 0h15l26 2 24 4 26 7 24 9 25 12 21 13 12 9 14 11 15 14 9 9v2h2l9 11 10 13 10 15 9 16 8 16 10 25 8 27 259 1 16 3 16 8 11 10 9 14 4 10 1 1v33h-2l-4 9-9 14-10 9-12 6-16 4-19 1-244 1-8 27-10 25-8 16-9 16-11 16-10 13-18 20-9 9-8 7-18 14-22 14-25 13-23 9-24 7-25 5-13 2-13 1h-32l-22-2-22-4-22-6-25-9-25-12-20-12-19-14-14-12-23-23-9-11-12-16-13-21-9-17-10-25-7-23-5-23-3-23-1-16v-13l2-26 4-25 7-26 7-20 12-26 13-22 13-18 9-11 12-13 14-14 11-9 13-10 15-10 18-10 23-11 30-10 22-5 27-4zm5 122-30 3-26 8-16 8-15 9-13 11-8 7-8 9-12 16-10 18-6 15-5 16-3 21-1 17 3 27 6 21 5 13 12 22 13 16 9 10 13 11 10 7 22 12 21 7 12 3 18 2h20l25-3 27-9 23-12 13-10 14-12 11-13 8-11 12-22 8-24 3-15 1-11v-22l-2-20-7-24-7-16-9-16-7-9-8-10-11-11-14-11-13-8-21-10-20-6-21-3z"/>
<path transform="translate(576,1475)" d="m0 0h20l25 2 24 4 28 8 21 8 25 12 18 11 14 10 14 11 16 15 9 9 7 8 14 18 8 12 9 15 12 24 10 27 7 27 4 26 1 12v37l-4 32-6 25-9 26-7 16-12 23-9 14-16 21-22 24-8 7-13 11-17 12-13 8-16 9-20 9-22 8-29 7-26 4-16 1h-25l-23-2-27-5-24-7-26-10-20-10-21-13-21-16-15-14-5-4-7-8-12-13-14-19-13-21-9-17-10-25-6-19-3-11-42-1h-39l-183-1-13-3-12-6-9-7-11-14-7-16v-28l7-16 7-10 2-3h2v-2l13-9 12-5 11-2h262l4-16 8-24 9-20 10-19 11-17 18-24h2l2-4 15-16 8-7 12-10 19-14 21-12 16-8 19-8 21-7 22-5 27-4zm5 122-22 2-23 6-13 5-19 10-11 8-14 12-8 8-9 11-6 8-6 11-8 17-7 22-3 21v29l3 19 5 18 7 16 7 13 10 14 12 14 10 9 14 11 26 14 26 8 23 3h20l24-3 26-8 23-12 11-8 13-11 5-5 11-12 9-13 7-12 7-16 7-25 2-16v-24l-3-23-8-25-8-16-8-14-14-17-10-10-14-11-13-8-15-8-22-7-15-3-21-2z"/>
<path transform="translate(56,963)" d="m0 0h975l16 3 16 8 11 10 7 10 5 11 2 9v21l-5 15-7 11-9 10-13 8-13 4-6 1-19 1h-936l-29-1-15-4-9-5-11-9-9-12-7-16v-28l7-16 7-10 9-9 12-7 13-4z"/>
<path transform="translate(1014,1691)" d="m0 0h979l15 3 12 6 10 8 7 8 7 12 4 9v33h-2l-4 9-7 11-5 6h-2v2l-11 7-12 5-11 2-58 1-924-1-16-4-12-7-10-9-9-14-4-11-2-12 1-14 4-14 6-10 8-10 13-9 12-5z"/>
<path transform="translate(1085,235)" d="m0 0h903l16 2 12 5 9 6 8 7 7 10 8 16v33h-2l-4 10-9 13-7 7-12 7-12 4-18 2h-894l-18-2-13-5-9-6-7-6-8-11-6-13-2-9v-18l3-11 4-9 7-11 11-10 16-8 8-2z"/>
<path transform="translate(2047,1734)" d="m0 0"/>
<path transform="translate(2047,1006)" d="m0 0"/>
<path transform="translate(2047,278)" d="m0 0"/>
</svg>
