<?xml version="1.0" encoding="UTF-8"?>
<svg version="1.1" viewBox="0 0 2048 2048" width="512" height="512" xmlns="http://www.w3.org/2000/svg">
<path transform="translate(383,63)" d="m0 0h189l15 2 10 6 7 8 4 11 1 62 10 3 5-1 2-3h2v-2h2v-2h2l2-4h2l2-4 6-5 6-7 4-4h2l2-4 11-8 9-3h11l11 4 11 9 69 69 752 1 15 2 10 6 7 8 4 10v14l-4 10-8 9-8 4-8 2-694 1 5 11 1 5v8l-4 11-7 9-36 36 1 8 2 5 56 1 11 2 8 4 7 7 5 10 1 3v206l-4 10-8 9-8 4-8 2-59 1-4 8-1 4 7 8 34 34 6 12 1 4v8l-3 10-4 6h432l11 1 12 6 8 9 4 9v16l-6 12-9 8-13 4-503 1-3 3h-2v2l-4 4h-2v2l-7 6-1 2h-2v2h-2v2h-2v2h-2v2h-2v2h-2v2l-4 4h-2v2h-2v2h-2v2h-2v2h-2v2h-2v2h-2v2h-2v2h-2v2h-2v2h-2v2h-2v2h-2l-2 4h-2l-2 4h-2v2h-2v2l-11 8-7 3-9 1-11-2-10-6-40-40-5 1-8 4v22l-1 40-4 10-9 10-9 4-6 1h-202l-11-4-10-9-5-11-1-7-1-57-9-4-4 1-39 39-8 5-5 2-11 1-9-2-6-3-10-9-134-134-6-11-1-3v-12l4-11 6-8h2v-2h2v-2l4-4h2l2-4h2l2-4h2l2-4h2l2-4h2l2-4 4-4h2v-2l3-2-1-8-3-6-61-1-11-4-9-8-6-12v-16l4-10 2-3h2l2-4 10-6 11-2h80l11 2 10 6 6 7 6 13 8 21 12 27 1 5v8l-3 9-3 6-4 5h-2l-2 4-24 24-3 2 1 5 3 1 6 7 8 7 4 5 6 5 6 7 6 5 6 7 6 5 6 7 6 5 6 7 6 5 5 6 8 6 34-34 9-5 6-2h11l12 4 24 11 26 10 9 7 6 9 2 6v53h127v-47l2-10 5-9 9-8 14-6 20-8 22-10 7-2h11l11 4 9 7 30 30 7-6 79-79h2l1-4-20-20-5-6-5-5-7-8-4-11v-9l3-10 12-27 10-26 6-8 6-5 8-4 6-1h49v-127h-52l-11-4-7-6-6-10-11-28-11-24-2-7v-10l4-11 6-8 31-31-3-5-84-84h-3l-5 5-2 3h-2l-2 4-17 17-9 7-10 4h-14l-14-5-19-9-24-9-10-6-7-9-3-7-1-9v-46l-126 1-1 53-4 9-6 8-8 5-33 13-19 9-6 2h-16l-9-4-11-9-9-9v-2h-2l-4-4v-2l-4-2-7-8-5 2-24 24-5 6-7 6-5 6-7 6-5 6-7 6-5 6-8 7-4 5-6 5-1 2h-2l7 8 26 26 6 9 3 9v9l-3 10-11 24-9 24-5 9-5 6-9 5-8 2-50 1-1 38-4 10-9 10-9 4-5 1h-11l-11-4-9-8-6-12-1-8v-64l2-11 4-8 5-6 10-6 10-2h58l2-6 1-2v-6l-39-39-6-10-2-6v-11l4-11 7-9 135-135 10-6 7-2h11l11 4 10 9 33 33 6 1 9-3v-56l2-11 4-8 5-5 5-4 9-4z"/>
<path transform="translate(767,1407)" d="m0 0h1150l14 2 10 6 7 8 4 10 1 58-1 467-4 10-4 6-6 5-9 4-6 1h-713l-11-4-9-8-6-12v-16l4-9 6-8 14-7 6-1h673v-447h-1086l-1 447h286l13 2 10 6 7 8 4 10v15l-6 12-9 8-8 3-6 1h-329l-11-4-9-8-5-9-2-13v-512l2-9 4-8 8-8 10-5z"/>
<path transform="translate(350,959)" d="m0 0h1150l15 2 10 6 7 8 3 6 1 5v333l-4 9-4 6-7 6-7 3-5 1h-11l-11-4-9-8-6-12-1-9v-287l-1086 1-1 446h255l12 2 8 4 7 7 5 9 1 3v16l-6 12-9 8-7 3-6 1h-298l-11-4-9-8-6-12-1-10v-512l2-9 4-8 5-6 10-6z"/>
<path transform="translate(1663,191)" d="m0 0h286l14 2 10 6 7 8 4 10 1 50v59l-1 417-7 14-8 7-8 3-6 1h-553l-11-4-9-8-6-12v-16l4-10 6-7 14-7 6-1h513v-447h-261l-11-4-9-8-6-12v-16l4-9 5-7 10-6 5-2z"/>
<path transform="translate(94,1183)" d="m0 0h128l13 2 10 6 7 8 3 6 1 4v15l-6 12-9 8-7 3-6 1-99 1v177l-1 269h272l-7-8-6-8-3-8v-14l4-10 8-9 10-5 4-1h13l10 4 13 11 52 52v2h2l8 10 4 9v16l-6 12-70 70-9 5-4 1h-16l-12-6-7-8-4-8-1-4v-10l3-10 6-9 7-7 1-2h-310l-11-4-9-8-5-9-2-14v-511l2-9 4-8 5-5 8-6 5-2z"/>
<path transform="translate(467,285)" d="m0 0h24l23 3 21 5 22 8 23 12 17 12 13 11 16 16 10 13 11 17 8 16 6 14 7 23 3 16 1 9v38l-3 19-4 16-6 18-7 10-8 6-11 4h-8l-10-3-9-6-7-10-3-9v-8l7-25 3-17v-28l-3-17-7-21-10-19-10-13-5-6-2-1v-2l-4-2-8-7-14-9-16-8-15-5-14-3-16-1-21 1-18 4-15 5-17 9-12 9-10 9-8 8-10 14-10 19-5 15-3 12-1 7v32l3 15 5 16 8 16 7 12 11 13 8 8 12 9 15 9 17 7 15 4 13 2h27l20-4 15-5 5-1h12l10 4 8 6 6 9 3 12-2 12-4 8-4 5-9 6-24 8-25 5-10 1h-31l-22-3-23-6-15-6-19-9-11-7-14-10-15-13-8-8-9-11-11-15-9-16-7-14-6-17-5-18-3-18-1-11v-22l3-24 6-24 8-21 11-21 13-19h2l2-4 9-10 1-2h2v-2h2v-2l8-7 15-12 18-11 16-8 15-6 18-5 15-3z"/>
<path transform="translate(1816,832)" d="m0 0h16l9 4 8 7 5 8 2 7v301l-4 10-9 10-10 4-5 1-116 1 5 5 8 11 3 8v13l-4 10-9 10-10 5-13 1-9-2-9-6-68-68-6-12-1-11 2-9 7-11 66-66 10-6 13-2 10 2 8 4 7 7 5 9 1 3v16l-6 12-10 10 79 1v-257l2-9 4-8 5-6 10-6z"/>
<path transform="translate(1021,1535)" d="m0 0 23 2 16 5 17 9 10 8 7 6v2h2l10 14 8 16 4 12 2 11v24l-4 18-8 18-9 13-1 5 9 12 8 17 4 15 1 5v26l-4 17-8 18-9 13-10 11-15 11-15 7-17 5-7 1h-23l-18-4-12-5-11-6-10-8-13-13-9-14-7-15-4-17-1-14 2-11 5-10 8-7 9-4 10-1 10 2 8 4 7 7 5 10 4 20 5 10 7 6 10 4h13l10-4 7-5 5-8 2-6v-14l-5-12-9-8-8-3-19-3-9-5-8-9-4-9v-16l4-10 2-3h2l2-4 10-6 10-2 12-2 9-5 5-5 4-6 2-6v-14l-5-12-9-8-13-4h-7l-10 3-8 6-4 5-4 10-3 18-6 10-8 7-11 4h-13l-10-4-9-8-6-12-1-12 2-16 5-16 8-16 10-13 10-10 13-9 14-7 14-4z"/>
<path transform="translate(573,1087)" d="m0 0 17 1 14 3 15 6 13 8 11 9 10 11 8 13 5 10 4 12 2 11v20l-4 10-15 23-66 99-11 16-3 4h67l11 2 8 4 7 7 6 12v16l-6 12-9 8-7 3-6 1h-138l-11-4-9-8-6-12v-16l4-9 7-11 22-33 29-43 15-23 42-63 6-10-3-9-7-8-8-4-9-2-11 1-8 4-8 7-4 8-4 22-6 10-8 7-11 4h-13l-10-4-9-8-6-12-1-12 2-16 5-16 8-16 10-13 10-10 10-7 15-8 16-5z"/>
<path transform="translate(1248,447)" d="m0 0h542l13 2 6 3 9 8 6 12v16l-6 12-9 8-7 3-6 1h-554l-11-4-9-8-6-12v-16l4-10 6-7 14-7z"/>
<path transform="translate(799,1247)" d="m0 0h543l13 2 10 6 7 8 4 10v15l-6 12-9 8-8 3-6 1h-553l-11-4-9-8-6-12v-16l4-9 5-7 10-6 5-2z"/>
<path transform="translate(1246,1791)" d="m0 0h512l13 2 10 6 7 8 4 10v15l-6 12-9 8-7 3-6 1h-522l-11-4-9-8-6-12v-16l4-10 6-7 14-7z"/>
<path transform="translate(1248,1663)" d="m0 0h510l13 2 6 3 9 8 6 12v16l-6 12-9 8-7 3-6 1h-522l-11-4-9-8-6-12v-16l4-9 5-7 10-6 5-2z"/>
<path transform="translate(1311,575)" d="m0 0h479l13 2 10 6 7 8 4 10v15l-6 12-9 8-7 3-6 1h-490l-11-4-9-8-6-12v-16l4-10 6-7 14-7z"/>
<path transform="translate(1086,319)" d="m0 0 13 2 8 4 7 7 5 10 1 4v229h32l11 2 8 4 7 7 6 12v16l-6 12-9 8-7 3-6 1h-138l-11-4-9-8-6-12v-16l4-10 6-7 8-5 5-2 6-1h34v-143l-8 7-9 6-10 3h-8l-10-3-6-4-8-9-4-10v-13l4-10 7-9 63-63 10-6z"/>
<path transform="translate(1406,319)" d="m0 0h384l13 2 10 6 7 8 4 10v15l-6 12-9 8-7 3-6 1h-394l-11-4-9-8-6-12v-16l4-10 6-7 14-7z"/>
<path transform="translate(1374,1535)" d="m0 0h383l11 1 12 6 8 9 4 10v15l-6 12-9 8-7 3-6 1h-394l-11-4-9-8-6-12v-16l4-10 6-7 14-7z"/>
<path transform="translate(959,1119)" d="m0 0h381l15 2 10 6 7 8 4 10v15l-6 12-9 8-7 3-6 1h-394l-11-4-9-8-6-12v-16l4-9 5-7 10-6 5-2z"/>
</svg>
