<?xml version="1.0" encoding="UTF-8"?>
<svg version="1.1" viewBox="0 0 2048 2048" width="512" height="512" xmlns="http://www.w3.org/2000/svg">
<path transform="translate(38,183)" d="m0 0h1969l14 2 10 5 10 10 7 13v1625l-3 3-7 10-8 7-8 4-10 2h-1418l-13-4-8-6-7-8-5-10-1-3v-18l4-10 6-9 7-6 10-5 11-2h89v-239h-606l-1 239h156l16 2 12 6 9 9 6 12 1 3v18l-4 10-7 9-7 6-8 4-10 2h-210l-13-4-9-7-7-8-5-10v-1623l7-12 6-7 14-8zm43 81-1 23v216l5 1h1880l2-1v-239zm0 320-1 19v220l5 1h600l2-1v-239zm688 0-1 19v220l237 1 2-1v-239zm320 0-1 23v216l5 1h232l2-1v-239zm320 0-1 19v220l237 1 2-1v-239zm320 0-1 19v220l237 1 2-1v-239zm-1648 320-1 20v219l5 1h600l2-1v-239zm688 0-1 33v206l5 1h232l2-1v-239zm320 0-1 26v213l237 1 2-1v-239zm320 0-1 26v213l237 1 2-1v-239zm320 0-1 32v207l4 1h233l2-1v-239zm-1648 320-1 20v219l5 1h600l2-1v-239zm688 0-1 26v213l237 1 2-1v-239zm320 0-1 26v213l237 1 2-1v-239zm320 0-1 32v207l5 1h232l2-1v-239zm320 0-1 26v213l237 1 2-1v-239zm-960 320-1 33v206l6 1h231l2-1v-239zm320 0-1 33v206l6 1h231l2-1v-239zm320 0-1 26v213l5 1h232l2-1v-239zm320 0-1 32v207l6 1h231l2-1v-239z"/>
<path transform="translate(359,343)" d="m0 0h1325l16 2 12 6 9 9 6 12 1 4v16l-4 11-7 9-7 6-8 4-10 2h-1338l-13-4-8-6-7-8-5-10-1-3v-18l5-12 6-8 5-4 11-6z"/>
<path transform="translate(198,1622)" d="m0 0h369l13 2 12 6 9 9 6 12 1 4v16l-4 11-7 9-7 6-8 4-7 2h-382l-10-3-9-6-7-7-6-12-1-3v-18l4-11 7-9 9-7 10-4z"/>
<path transform="translate(199,1302)" d="m0 0h368l13 2 12 6 9 9 6 12 1 4v16l-4 11-7 9-7 6-8 4-8 2h-381l-10-3-9-6-7-7-6-12-1-3v-18l4-11 7-9 9-7 10-4z"/>
<path transform="translate(199,982)" d="m0 0h368l13 2 12 6 9 9 6 12 1 4v16l-4 11-7 9-7 6-8 4-8 2h-381l-10-3-9-6-7-7-6-12-1-3v-18l4-11 7-9 9-7 10-4z"/>
<path transform="translate(199,662)" d="m0 0h368l13 2 12 6 9 9 6 12 1 4v16l-4 11-7 9-7 6-8 4-8 2h-381l-10-3-9-6-7-7-6-12-1-3v-18l4-11 7-9 9-7 10-4z"/>
<path transform="translate(411,1784)" d="m0 0h18l10 4 6 4 5 5 6 8 4 10v18l-4 10-6 8-8 7-8 4-8 2h-13l-10-3-9-6-7-7-6-12-1-3v-18l4-11 7-9 9-7z"/>
<path transform="translate(1838,663)" d="m0 0h19l12 5 7 5 8 11 4 11v16l-4 11-7 9-7 6-8 4-7 2h-15l-11-4-8-6-8-9-5-12v-18l4-11 7-9 9-7z"/>
<path transform="translate(1518,663)" d="m0 0h19l12 5 7 5 8 11 4 11v16l-4 11-7 9-7 6-8 4-7 2h-15l-11-4-8-6-8-9-5-12v-18l4-11 7-9 9-7z"/>
<path transform="translate(878,663)" d="m0 0h19l12 5 7 5 8 11 4 11v16l-4 11-7 9-7 6-8 4-7 2h-15l-11-4-8-6-8-9-5-12v-18l4-11 7-9 9-7z"/>
<path transform="translate(1518,1623)" d="m0 0h19l12 5 10 9 6 9 3 9v16l-4 11-7 9-7 6-8 4-7 2h-15l-11-4-8-6-8-9-5-12v-18l4-11 7-9 9-7z"/>
<path transform="translate(1838,1303)" d="m0 0h19l12 5 10 9 6 9 3 9v16l-4 11-7 9-7 6-8 4-7 2h-15l-11-4-8-6-8-9-5-12v-18l4-11 7-9 9-7z"/>
<path transform="translate(1198,1303)" d="m0 0h19l12 5 10 9 6 9 3 9v16l-4 11-7 9-7 6-8 4-7 2h-15l-11-4-8-6-8-9-5-12v-18l4-11 7-9 9-7z"/>
<path transform="translate(878,1303)" d="m0 0h19l12 5 10 9 6 9 3 9v16l-4 11-7 9-7 6-8 4-7 2h-15l-11-4-8-6-8-9-5-12v-18l4-11 7-9 9-7z"/>
<path transform="translate(1518,983)" d="m0 0h19l12 5 10 9 6 9 3 9v16l-4 11-7 9-7 6-8 4-7 2h-15l-11-4-8-6-8-9-5-12v-18l4-11 7-9 9-7z"/>
<path transform="translate(1198,983)" d="m0 0h19l12 5 10 9 6 9 3 9v16l-4 11-7 9-7 6-8 4-7 2h-15l-11-4-8-6-8-9-5-12v-18l4-11 7-9 9-7z"/>
</svg>
